<svg width="55" height="55" viewBox="0 0 55 55" fill="none" xmlns="http://www.w3.org/2000/svg">
<path fill-rule="evenodd" clip-rule="evenodd" d="M27.0324 54.0649C41.9622 54.0649 54.0649 41.9621 54.0649 27.0324C54.0649 12.1028 41.9622 0 27.0324 0C12.1028 0 0 12.1028 0 27.0324C0 41.9621 12.1028 54.0649 27.0324 54.0649ZM31.2049 20.886C33.5091 18.5817 33.5091 14.8456 31.2049 12.5413C28.9005 10.2369 25.1645 10.2369 22.8601 12.5413C20.5558 14.8456 20.5558 18.5817 22.8601 20.886L27.0324 25.0584L31.2049 20.886ZM33.1789 31.2049C35.4833 33.5093 39.2193 33.5093 41.5237 31.2049C43.828 28.9005 43.828 25.1645 41.5237 22.8601C39.2193 20.5558 35.4833 20.5558 33.1789 22.8601L29.0066 27.0326L33.1789 31.2049ZM31.2049 41.5237C33.5091 39.2193 33.5091 35.4833 31.2049 33.1789L27.0324 29.0066L22.8601 33.1789C20.5558 35.4833 20.5558 39.2193 22.8601 41.5237C25.1645 43.8281 28.9005 43.8281 31.2049 41.5237ZM12.5412 31.2049C10.2369 28.9005 10.2369 25.1645 12.5412 22.8601C14.8456 20.5558 18.5817 20.5558 20.8861 22.8601L25.0584 27.0326L20.8861 31.2049C18.5817 33.5093 14.8456 33.5093 12.5412 31.2049Z" fill="#616161"/>
</svg>
