<svg width="53" height="53" viewBox="0 0 53 53" fill="none" xmlns="http://www.w3.org/2000/svg">
<path fill-rule="evenodd" clip-rule="evenodd" d="M26.6755 52.065C40.956 52.065 52.5327 40.4884 52.5327 26.2078C52.5327 11.9274 40.956 0.350708 26.6755 0.350708C12.395 0.350708 0.818359 11.9274 0.818359 26.2078C0.818359 40.4884 12.395 52.065 26.6755 52.065ZM34.742 12.3961C35.1347 11.0013 33.7812 10.1766 32.5451 11.0573L15.2895 23.3501C13.9489 24.3051 14.1598 26.2078 15.6062 26.2078H20.1501V26.1727H29.0059L21.7901 28.7187L18.609 40.0197C18.2164 41.4144 19.5697 42.2392 20.806 41.3585L38.0616 29.0657C39.4021 28.1107 39.1912 26.2078 37.7448 26.2078H30.8542L34.742 12.3961Z" fill="#616161"/>
</svg>
