<svg width="119" height="19" viewBox="0 0 119 19" fill="none" xmlns="http://www.w3.org/2000/svg">
<g clip-path="url(#clip0_2780_1069)">
<path d="M10.0902 1.15892L12.5523 6.14642L18.0576 6.94759C18.1792 6.96512 18.2934 7.01636 18.3874 7.09549C18.4814 7.17462 18.5513 7.27849 18.5893 7.39533C18.6273 7.51217 18.6318 7.63731 18.6023 7.75658C18.5729 7.87585 18.5106 7.98448 18.4225 8.07017L14.4381 11.9493L15.3786 17.4324C15.3993 17.5535 15.3858 17.678 15.3395 17.7918C15.2931 17.9057 15.2159 18.0042 15.1165 18.0765C15.0171 18.1487 14.8995 18.1917 14.7769 18.2006C14.6544 18.2094 14.5318 18.1839 14.423 18.1267L9.49965 15.5419L4.57548 18.1291C4.46661 18.186 4.34402 18.2113 4.22151 18.2023C4.09901 18.1932 3.98146 18.1502 3.88213 18.0779C3.78279 18.0057 3.70561 17.9071 3.65929 17.7933C3.61296 17.6795 3.59933 17.5551 3.61994 17.434L4.56044 11.9541L0.57598 8.07492C0.487938 7.98923 0.42565 7.8806 0.396171 7.76133C0.366692 7.64206 0.371201 7.51692 0.409186 7.40008C0.447171 7.28324 0.517115 7.17937 0.611095 7.10024C0.705076 7.0211 0.819337 6.96987 0.940939 6.95234L6.44619 6.14721L8.90827 1.15971C8.96274 1.04953 9.0469 0.956766 9.15128 0.891878C9.25566 0.82699 9.3761 0.792563 9.49901 0.792481C9.62191 0.792398 9.74239 0.826664 9.84686 0.891412C9.95133 0.95616 10.0356 1.04881 10.0902 1.15892Z" fill="#EDFF7C"/>
</g>
<g clip-path="url(#clip1_2780_1069)">
<path d="M35.0902 1.15892L37.5523 6.14642L43.0576 6.94759C43.1792 6.96512 43.2934 7.01636 43.3874 7.09549C43.4814 7.17462 43.5513 7.27849 43.5893 7.39533C43.6273 7.51217 43.6318 7.63731 43.6023 7.75658C43.5729 7.87585 43.5106 7.98448 43.4225 8.07017L39.4381 11.9493L40.3786 17.4324C40.3993 17.5535 40.3858 17.678 40.3395 17.7918C40.2931 17.9057 40.2159 18.0042 40.1165 18.0765C40.0171 18.1487 39.8995 18.1917 39.7769 18.2006C39.6544 18.2094 39.5318 18.1839 39.423 18.1267L34.4996 15.5419L29.5755 18.1291C29.4666 18.186 29.344 18.2113 29.2215 18.2023C29.099 18.1932 28.9815 18.1502 28.8821 18.0779C28.7828 18.0057 28.7056 17.9071 28.6593 17.7933C28.613 17.6795 28.5993 17.5551 28.6199 17.434L29.5604 11.9541L25.576 8.07492C25.4879 7.98923 25.4256 7.8806 25.3962 7.76133C25.3667 7.64206 25.3712 7.51692 25.4092 7.40008C25.4472 7.28324 25.5171 7.17937 25.6111 7.10024C25.7051 7.0211 25.8193 6.96987 25.9409 6.95234L31.4462 6.14721L33.9083 1.15971C33.9627 1.04953 34.0469 0.956766 34.1513 0.891878C34.2557 0.82699 34.3761 0.792563 34.499 0.792481C34.6219 0.792398 34.7424 0.826664 34.8469 0.891412C34.9513 0.95616 35.0356 1.04881 35.0902 1.15892Z" fill="#84878A"/>
</g>
<g clip-path="url(#clip2_2780_1069)">
<path d="M60.0902 1.15892L62.5523 6.14642L68.0576 6.94759C68.1792 6.96512 68.2934 7.01636 68.3874 7.09549C68.4814 7.17462 68.5513 7.27849 68.5893 7.39533C68.6273 7.51217 68.6318 7.63731 68.6023 7.75658C68.5729 7.87585 68.5106 7.98448 68.4225 8.07017L64.4381 11.9493L65.3786 17.4324C65.3993 17.5535 65.3858 17.678 65.3395 17.7918C65.2931 17.9057 65.2159 18.0042 65.1165 18.0765C65.0171 18.1487 64.8995 18.1917 64.7769 18.2006C64.6544 18.2094 64.5318 18.1839 64.423 18.1267L59.4996 15.5419L54.5755 18.1291C54.4666 18.186 54.344 18.2113 54.2215 18.2023C54.099 18.1932 53.9815 18.1502 53.8821 18.0779C53.7828 18.0057 53.7056 17.9071 53.6593 17.7933C53.613 17.6795 53.5993 17.5551 53.6199 17.434L54.5604 11.9541L50.576 8.07492C50.4879 7.98923 50.4256 7.8806 50.3962 7.76133C50.3667 7.64206 50.3712 7.51692 50.4092 7.40008C50.4472 7.28324 50.5171 7.17937 50.6111 7.10024C50.7051 7.0211 50.8193 6.96987 50.9409 6.95234L56.4462 6.14721L58.9083 1.15971C58.9627 1.04953 59.0469 0.956766 59.1513 0.891878C59.2557 0.82699 59.3761 0.792563 59.499 0.792481C59.6219 0.792398 59.7424 0.826664 59.8469 0.891412C59.9513 0.95616 60.0356 1.04881 60.0902 1.15892Z" fill="#84878A"/>
</g>
<g clip-path="url(#clip3_2780_1069)">
<path d="M85.0902 1.15892L87.5523 6.14642L93.0576 6.94759C93.1792 6.96512 93.2934 7.01636 93.3874 7.09549C93.4814 7.17462 93.5513 7.27849 93.5893 7.39533C93.6273 7.51217 93.6318 7.63731 93.6023 7.75658C93.5729 7.87585 93.5106 7.98448 93.4225 8.07017L89.4381 11.9493L90.3786 17.4324C90.3993 17.5535 90.3858 17.678 90.3395 17.7918C90.2931 17.9057 90.2159 18.0042 90.1165 18.0765C90.0171 18.1487 89.8995 18.1917 89.7769 18.2006C89.6544 18.2094 89.5318 18.1839 89.423 18.1267L84.4996 15.5419L79.5755 18.1291C79.4666 18.186 79.344 18.2113 79.2215 18.2023C79.099 18.1932 78.9815 18.1502 78.8821 18.0779C78.7828 18.0057 78.7056 17.9071 78.6593 17.7933C78.613 17.6795 78.5993 17.5551 78.6199 17.434L79.5604 11.9541L75.576 8.07492C75.4879 7.98923 75.4256 7.8806 75.3962 7.76133C75.3667 7.64206 75.3712 7.51692 75.4092 7.40008C75.4472 7.28324 75.5171 7.17937 75.6111 7.10024C75.7051 7.0211 75.8193 6.96987 75.9409 6.95234L81.4462 6.14721L83.9083 1.15971C83.9627 1.04953 84.0469 0.956766 84.1513 0.891878C84.2557 0.82699 84.3761 0.792563 84.499 0.792481C84.6219 0.792398 84.7424 0.826664 84.8469 0.891412C84.9513 0.95616 85.0356 1.04881 85.0902 1.15892Z" fill="#84878A"/>
</g>
<g clip-path="url(#clip4_2780_1069)">
<path d="M110.09 1.15892L112.552 6.14642L118.058 6.94759C118.179 6.96512 118.293 7.01636 118.387 7.09549C118.481 7.17462 118.551 7.27849 118.589 7.39533C118.627 7.51217 118.632 7.63731 118.602 7.75658C118.573 7.87585 118.511 7.98448 118.423 8.07017L114.438 11.9493L115.379 17.4324C115.399 17.5535 115.386 17.678 115.339 17.7918C115.293 17.9057 115.216 18.0042 115.117 18.0765C115.017 18.1487 114.899 18.1917 114.777 18.2006C114.654 18.2094 114.532 18.1839 114.423 18.1267L109.5 15.5419L104.575 18.1291C104.467 18.186 104.344 18.2113 104.222 18.2023C104.099 18.1932 103.981 18.1502 103.882 18.0779C103.783 18.0057 103.706 17.9071 103.659 17.7933C103.613 17.6795 103.599 17.5551 103.62 17.434L104.56 11.9541L100.576 8.07492C100.488 7.98923 100.426 7.8806 100.396 7.76133C100.367 7.64206 100.371 7.51692 100.409 7.40008C100.447 7.28324 100.517 7.17937 100.611 7.10024C100.705 7.0211 100.819 6.96987 100.941 6.95234L106.446 6.14721L108.908 1.15971C108.963 1.04953 109.047 0.956766 109.151 0.891878C109.256 0.82699 109.376 0.792563 109.499 0.792481C109.622 0.792398 109.742 0.826664 109.847 0.891412C109.951 0.95616 110.036 1.04881 110.09 1.15892Z" fill="#84878A"/>
</g>
<defs>
<clipPath id="clip0_2780_1069">
<rect width="19" height="19" fill="white"/>
</clipPath>
<clipPath id="clip1_2780_1069">
<rect width="19" height="19" fill="white" transform="translate(25)"/>
</clipPath>
<clipPath id="clip2_2780_1069">
<rect width="19" height="19" fill="white" transform="translate(50)"/>
</clipPath>
<clipPath id="clip3_2780_1069">
<rect width="19" height="19" fill="white" transform="translate(75)"/>
</clipPath>
<clipPath id="clip4_2780_1069">
<rect width="19" height="19" fill="white" transform="translate(100)"/>
</clipPath>
</defs>
</svg>
