<svg width="78" height="11" viewBox="0 0 78 11" fill="none" xmlns="http://www.w3.org/2000/svg">
<path d="M12.0555 4.15628C11.9799 3.92385 11.7738 3.75929 11.5308 3.73731L8.21731 3.43649L6.90778 0.370622C6.8111 0.145376 6.59111 0 6.34624 0C6.10138 0 5.8813 0.145376 5.78523 0.370622L4.4757 3.43649L1.16165 3.73731C0.918712 3.75973 0.712995 3.92429 0.636979 4.15628C0.561401 4.3887 0.631199 4.64364 0.814934 4.80478L3.3197 7.0011L2.58117 10.2539C2.52713 10.493 2.61997 10.7403 2.81841 10.8838C2.92508 10.9613 3.0504 11 3.17616 11C3.28423 11 3.39239 10.9713 3.48898 10.9135L6.34624 9.20504L9.20298 10.9135C9.41255 11.0387 9.67606 11.0272 9.87407 10.8838C10.0725 10.7403 10.1653 10.493 10.1113 10.2539L9.37279 7.0011L11.8776 4.80478C12.0612 4.64364 12.1311 4.38923 12.0555 4.15628V4.15628Z" fill="url(#paint0_linear_2265_1455)"/>
<path d="M28.534 4.15628C28.4584 3.92385 28.2523 3.75929 28.0094 3.73731L24.6958 3.43649L23.3863 0.370622C23.2896 0.145376 23.0696 0 22.8248 0C22.5799 0 22.3598 0.145376 22.2637 0.370622L20.9542 3.43649L17.6402 3.73731C17.3972 3.75973 17.1915 3.92429 17.1155 4.15628C17.0399 4.3887 17.1097 4.64364 17.2934 4.80478L19.7982 7.0011L19.0597 10.2539C19.0057 10.493 19.0985 10.7403 19.2969 10.8838C19.4036 10.9613 19.5289 11 19.6547 11C19.7627 11 19.8709 10.9713 19.9675 10.9135L22.8248 9.20504L25.6815 10.9135C25.8911 11.0387 26.1546 11.0272 26.3526 10.8838C26.551 10.7403 26.6439 10.493 26.5898 10.2539L25.8513 7.0011L28.3561 4.80478C28.5397 4.64364 28.6096 4.38923 28.534 4.15628V4.15628Z" fill="url(#paint1_linear_2265_1455)"/>
<path d="M45.0125 4.15628C44.937 3.92385 44.7308 3.75929 44.4879 3.73731L41.1743 3.43649L39.8648 0.370622C39.7681 0.145376 39.5481 0 39.3033 0C39.0584 0 38.8383 0.145376 38.7423 0.370622L37.4327 3.43649L34.1187 3.73731C33.8757 3.75973 33.67 3.92429 33.594 4.15628C33.5184 4.3887 33.5882 4.64364 33.772 4.80478L36.2767 7.0011L35.5382 10.2539C35.4842 10.493 35.577 10.7403 35.7754 10.8838C35.8821 10.9613 36.0074 11 36.1332 11C36.2413 11 36.3494 10.9713 36.446 10.9135L39.3033 9.20504L42.16 10.9135C42.3696 11.0387 42.6331 11.0272 42.8311 10.8838C43.0296 10.7403 43.1224 10.493 43.0683 10.2539L42.3298 7.0011L44.8346 4.80478C45.0182 4.64364 45.0881 4.38923 45.0125 4.15628V4.15628Z" fill="url(#paint2_linear_2265_1455)"/>
<path d="M61.4915 4.15628C61.416 3.92385 61.2098 3.75929 60.9669 3.73731L57.6533 3.43649L56.3438 0.370622C56.2471 0.145376 56.0271 0 55.7823 0C55.5374 0 55.3173 0.145376 55.2213 0.370622L53.9117 3.43649L50.5977 3.73731C50.3547 3.75973 50.149 3.92429 50.073 4.15628C49.9974 4.3887 50.0672 4.64364 50.251 4.80478L52.7557 7.0011L52.0172 10.2539C51.9632 10.493 52.056 10.7403 52.2544 10.8838C52.3611 10.9613 52.4864 11 52.6122 11C52.7203 11 52.8284 10.9713 52.925 10.9135L55.7823 9.20504L58.639 10.9135C58.8486 11.0387 59.1121 11.0272 59.3101 10.8838C59.5086 10.7403 59.6014 10.493 59.5474 10.2539L58.8088 7.0011L61.3136 4.80478C61.4972 4.64364 61.5671 4.38923 61.4915 4.15628V4.15628Z" fill="url(#paint3_linear_2265_1455)"/>
<path d="M77.9701 4.15628C77.8945 3.92385 77.6883 3.75929 77.4454 3.73731L74.1319 3.43649L72.8223 0.370622C72.7256 0.145376 72.5057 0 72.2608 0C72.0159 0 71.7959 0.145376 71.6998 0.370622L70.3903 3.43649L67.0762 3.73731C66.8333 3.75973 66.6275 3.92429 66.5515 4.15628C66.476 4.3887 66.5457 4.64364 66.7295 4.80478L69.2342 7.0011L68.4957 10.2539C68.4417 10.493 68.5345 10.7403 68.733 10.8838C68.8396 10.9613 68.965 11 69.0907 11C69.1988 11 69.3069 10.9713 69.4035 10.9135L72.2608 9.20504L75.1175 10.9135C75.3271 11.0387 75.5906 11.0272 75.7886 10.8838C75.9871 10.7403 76.0799 10.493 76.0259 10.2539L75.2873 7.0011L77.7921 4.80478C77.9757 4.64364 78.0456 4.38923 77.9701 4.15628V4.15628Z" fill="#D4D4D8"/>
<defs>
<linearGradient id="paint0_linear_2265_1455" x1="0.606934" y1="0" x2="14.2837" y2="5.93104" gradientUnits="userSpaceOnUse">
<stop stop-color="#FBFF25"/>
<stop offset="0.21875" stop-color="#E7E542"/>
<stop offset="0.453125" stop-color="#AAEA5E"/>
<stop offset="0.697917" stop-color="#51D9C6"/>
<stop offset="1" stop-color="#4AA8FF"/>
</linearGradient>
<linearGradient id="paint1_linear_2265_1455" x1="17.0854" y1="0" x2="30.7622" y2="5.93104" gradientUnits="userSpaceOnUse">
<stop stop-color="#FBFF25"/>
<stop offset="0.21875" stop-color="#E7E542"/>
<stop offset="0.453125" stop-color="#AAEA5E"/>
<stop offset="0.697917" stop-color="#51D9C6"/>
<stop offset="1" stop-color="#4AA8FF"/>
</linearGradient>
<linearGradient id="paint2_linear_2265_1455" x1="33.564" y1="0" x2="47.2408" y2="5.93104" gradientUnits="userSpaceOnUse">
<stop stop-color="#FBFF25"/>
<stop offset="0.21875" stop-color="#E7E542"/>
<stop offset="0.453125" stop-color="#AAEA5E"/>
<stop offset="0.697917" stop-color="#51D9C6"/>
<stop offset="1" stop-color="#4AA8FF"/>
</linearGradient>
<linearGradient id="paint3_linear_2265_1455" x1="50.043" y1="0" x2="63.7198" y2="5.93104" gradientUnits="userSpaceOnUse">
<stop stop-color="#FBFF25"/>
<stop offset="0.21875" stop-color="#E7E542"/>
<stop offset="0.453125" stop-color="#AAEA5E"/>
<stop offset="0.697917" stop-color="#51D9C6"/>
<stop offset="1" stop-color="#4AA8FF"/>
</linearGradient>
</defs>
</svg>
