<svg width="52" height="53" viewBox="0 0 52 53" fill="none" xmlns="http://www.w3.org/2000/svg">
<path fill-rule="evenodd" clip-rule="evenodd" d="M11.3436 5.00224C9.49396 6.29556 7.82139 7.82469 6.36945 9.54603C12.3028 8.99518 19.8408 9.89465 28.5925 14.2705C37.938 18.9431 45.4635 19.1011 50.7009 18.0909C50.2256 16.6521 49.6273 15.2692 48.9187 13.9546C42.9233 14.587 35.2372 13.75 26.2798 9.2714C20.5917 6.42737 15.5778 5.25582 11.3436 5.00224ZM45.4164 8.96974C40.6818 3.67981 33.8014 0.350708 26.1433 0.350708C23.8943 0.350708 21.7122 0.637861 19.632 1.17747C22.4494 1.94621 25.4424 3.07086 28.5925 4.64593C35.1506 7.92495 40.8126 8.98074 45.4164 8.96974ZM51.8206 23.1413C45.4934 24.3907 36.7561 24.1341 26.2798 18.896C16.4856 13.9989 8.69027 14.0605 3.43282 15.2289C3.16145 15.2891 2.89647 15.3525 2.63788 15.4184C1.94955 16.9154 1.4001 18.4896 1.00587 20.1243C1.42693 20.0118 1.86204 19.9049 2.31096 19.8051C8.68916 18.3877 17.701 18.4493 28.5925 23.895C38.3868 28.7921 46.1821 28.7305 51.4396 27.5621C51.6197 27.5222 51.7972 27.4808 51.9717 27.4381C51.9909 27.0305 52.0004 26.6203 52.0004 26.2078C52.0004 25.1703 51.9394 24.147 51.8206 23.1413ZM51.1275 32.8949C44.8617 33.9903 36.3788 33.5699 26.2798 28.5205C16.4856 23.6234 8.69027 23.6851 3.43282 24.8534C2.26582 25.1127 1.21601 25.4285 0.289921 25.7619C0.287396 25.9102 0.286133 26.0589 0.286133 26.2078C0.286133 40.4884 11.8628 52.065 26.1433 52.065C38.1114 52.065 48.1804 43.9341 51.1275 32.8949Z" fill="#616161"/>
</svg>
