<svg width="165" height="157" viewBox="0 0 165 157" fill="none" xmlns="http://www.w3.org/2000/svg">
<path d="M48.6181 65.0829C47.4767 65.9122 46.436 66.7684 45.2946 67.5976C37.3414 73.4664 29.6734 79.6812 23.0624 86.9885C21.0744 89.1578 19.261 91.4817 17.5853 93.8964C16.5198 95.448 15.6288 97.1543 15.0403 98.9412C13.2651 104.138 16.1923 108.322 21.7134 108.284C24.094 108.271 26.5092 107.728 28.8702 107.387C29.5932 107.31 30.2426 107.105 31.0762 107.22C30.7023 107.606 30.3283 107.992 29.9543 108.378C26.761 111.414 23.5037 114.486 20.9077 118.113C19.6232 119.877 18.4764 121.73 17.4673 123.675C16.8398 124.804 16.4876 126.114 16.2633 127.35C15.6543 131.022 17.3598 134.123 20.7627 135.734C22.533 136.585 24.5028 136.895 26.4259 136.976C29.8417 137.132 33.1274 136.768 36.4305 136.138C44.3818 134.697 52.1835 132.406 59.8746 129.923C67.8216 127.293 75.7587 124.499 83.6688 121.805C84.1533 121.61 84.6108 121.516 85.2797 121.641C84.8515 122.228 84.4505 122.715 84.0223 123.303C80.7326 127.501 77.7182 131.88 75.5938 136.767C74.6043 139.041 73.8532 141.433 73.267 143.815C72.7349 145.995 72.9725 148.326 73.9233 150.416C75.2255 153.41 77.6496 155.246 80.7479 156.181C83.3421 156.982 85.9882 156.987 88.6517 156.726C93.2187 156.217 97.5722 154.896 101.805 153.218C113.371 148.584 124.078 142.316 134.169 135.128C141.593 129.821 148.558 124.012 154.777 117.356C157.075 114.838 159.3 112.191 161.01 109.246C162.275 107.153 163.237 104.98 163.787 102.535C165.036 96.28 162.545 91.0783 157.013 88.1428C154.829 87.0197 152.574 86.3636 150.137 85.9828C146.766 85.4605 143.451 85.3313 140.064 85.669C136.184 86.0368 132.312 86.5691 128.469 87.0007C127.91 87.0676 127.352 87.1346 126.4 87.2584C126.855 86.5699 127.065 86.1938 127.338 85.7807C129.87 82.1905 132.439 78.6642 134.769 75.0202C137.099 71.3762 138.953 67.4969 139.99 63.2375C140.495 61.1582 140.798 59.025 140.809 56.9757C140.806 51.3586 138.391 46.8792 133.7 43.6284C130.735 41.5945 127.425 40.4406 123.906 39.663C120.085 38.8045 116.202 38.5776 112.329 38.5153C111.733 38.5184 111.037 38.4946 110.241 38.4438C110.568 37.8292 110.841 37.4161 111.114 37.003C114.092 32.5597 115.621 27.6757 115.665 22.287C115.677 18.0238 115.194 13.7906 113.732 9.78201C112.602 6.34805 110.25 4.04569 106.894 2.66336C103.097 1.10949 99.1305 0.590273 95.1044 1.29725C92.4507 1.72267 89.7699 2.24887 87.1726 3.06738C80.7802 5.14058 74.3606 7.31455 68.1525 9.70699C55.0869 14.6965 42.3997 20.4891 30.3858 27.5956C23.5794 31.6104 17.031 36.0721 11.2004 41.4816C8.69098 43.7817 6.31928 46.1726 4.57203 49.0542C3.39816 51.0089 2.19721 53.0644 1.5643 55.2175C-0.536067 61.6232 2.38586 66.8318 8.9022 68.5179C10.8177 69.0295 12.8883 69.3664 14.8385 69.3472C18.7389 69.3087 22.6664 69.1694 26.4366 68.6101C33.291 67.6323 40.0889 66.2615 46.7958 65.0283C47.3541 64.9614 47.8755 64.8306 48.4338 64.7637C48.5075 64.8913 48.5444 64.9552 48.6181 65.0829Z" fill="#F7D046"/>
</svg>
