<svg width="119" height="19" viewBox="0 0 119 19" fill="none" xmlns="http://www.w3.org/2000/svg">
<path d="M9.71328 1.15892L12.1754 6.14642L17.6806 6.94759C17.8022 6.96512 17.9165 7.01636 18.0105 7.09549C18.1044 7.17462 18.1744 7.27849 18.2124 7.39533C18.2503 7.51217 18.2549 7.63731 18.2254 7.75658C18.1959 7.87585 18.1336 7.98448 18.0456 8.07017L14.0611 11.9493L15.0016 17.4324C15.0224 17.5535 15.0088 17.678 14.9625 17.7918C14.9162 17.9057 14.839 18.0042 14.7396 18.0765C14.6402 18.1487 14.5225 18.1917 14.4 18.2006C14.2774 18.2094 14.1548 18.1839 14.0461 18.1267L9.12269 15.5419L4.19853 18.1291C4.08966 18.186 3.96706 18.2113 3.84456 18.2023C3.72205 18.1932 3.60451 18.1502 3.50517 18.0779C3.40584 18.0057 3.32866 17.9071 3.28233 17.7933C3.23601 17.6795 3.22238 17.5551 3.24299 17.434L4.18349 11.9541L0.199027 8.07492C0.110985 7.98923 0.0486968 7.8806 0.0192181 7.76133C-0.0102607 7.64206 -0.00575215 7.51692 0.032233 7.40008C0.0702181 7.28324 0.140162 7.17937 0.234142 7.10024C0.328123 7.0211 0.442384 6.96987 0.563985 6.95234L6.06924 6.14721L8.53132 1.15971C8.58578 1.04953 8.66995 0.956766 8.77433 0.891878C8.87871 0.82699 8.99915 0.792563 9.12205 0.792481C9.24496 0.792398 9.36544 0.826664 9.46991 0.891412C9.57437 0.95616 9.65867 1.04881 9.71328 1.15892Z" fill="#EDFF7C"/>
<g clip-path="url(#clip0_2780_1067)">
<path d="M34.7133 1.15892L37.1754 6.14642L42.6806 6.94759C42.8022 6.96512 42.9165 7.01636 43.0105 7.09549C43.1044 7.17462 43.1744 7.27849 43.2124 7.39533C43.2503 7.51217 43.2549 7.63731 43.2254 7.75658C43.1959 7.87585 43.1336 7.98448 43.0456 8.07017L39.0611 11.9493L40.0016 17.4324C40.0224 17.5535 40.0088 17.678 39.9625 17.7918C39.9162 17.9057 39.839 18.0042 39.7396 18.0765C39.6402 18.1487 39.5225 18.1917 39.4 18.2006C39.2774 18.2094 39.1548 18.1839 39.0461 18.1267L34.1227 15.5419L29.1985 18.1291C29.0897 18.186 28.9671 18.2113 28.8446 18.2023C28.7221 18.1932 28.6045 18.1502 28.5052 18.0779C28.4058 18.0057 28.3287 17.9071 28.2823 17.7933C28.236 17.6795 28.2224 17.5551 28.243 17.434L29.1835 11.9541L25.199 8.07492C25.111 7.98923 25.0487 7.8806 25.0192 7.76133C24.9897 7.64206 24.9942 7.51692 25.0322 7.40008C25.0702 7.28324 25.1402 7.17937 25.2341 7.10024C25.3281 7.0211 25.4424 6.96987 25.564 6.95234L31.0692 6.14721L33.5313 1.15971C33.5858 1.04953 33.67 0.956766 33.7743 0.891878C33.8787 0.82699 33.9991 0.792563 34.1221 0.792481C34.245 0.792398 34.3654 0.826664 34.4699 0.891412C34.5744 0.95616 34.6587 1.04881 34.7133 1.15892Z" fill="#EDFF7C"/>
</g>
<g clip-path="url(#clip1_2780_1067)">
<path d="M59.7133 1.15892L62.1754 6.14642L67.6806 6.94759C67.8022 6.96512 67.9165 7.01636 68.0105 7.09549C68.1044 7.17462 68.1744 7.27849 68.2124 7.39533C68.2503 7.51217 68.2549 7.63731 68.2254 7.75658C68.1959 7.87585 68.1336 7.98448 68.0456 8.07017L64.0611 11.9493L65.0016 17.4324C65.0224 17.5535 65.0088 17.678 64.9625 17.7918C64.9162 17.9057 64.839 18.0042 64.7396 18.0765C64.6402 18.1487 64.5225 18.1917 64.4 18.2006C64.2774 18.2094 64.1548 18.1839 64.0461 18.1267L59.1227 15.5419L54.1985 18.1291C54.0897 18.186 53.9671 18.2113 53.8446 18.2023C53.7221 18.1932 53.6045 18.1502 53.5052 18.0779C53.4058 18.0057 53.3287 17.9071 53.2823 17.7933C53.236 17.6795 53.2224 17.5551 53.243 17.434L54.1835 11.9541L50.199 8.07492C50.111 7.98923 50.0487 7.8806 50.0192 7.76133C49.9897 7.64206 49.9942 7.51692 50.0322 7.40008C50.0702 7.28324 50.1402 7.17937 50.2341 7.10024C50.3281 7.0211 50.4424 6.96987 50.564 6.95234L56.0692 6.14721L58.5313 1.15971C58.5858 1.04953 58.67 0.956766 58.7743 0.891878C58.8787 0.82699 58.9991 0.792563 59.1221 0.792481C59.245 0.792398 59.3654 0.826664 59.4699 0.891412C59.5744 0.95616 59.6587 1.04881 59.7133 1.15892Z" fill="#EDFF7C"/>
</g>
<g clip-path="url(#clip2_2780_1067)">
<path d="M84.7133 1.15892L87.1754 6.14642L92.6806 6.94759C92.8022 6.96512 92.9165 7.01636 93.0105 7.09549C93.1044 7.17462 93.1744 7.27849 93.2124 7.39533C93.2503 7.51217 93.2549 7.63731 93.2254 7.75658C93.1959 7.87585 93.1336 7.98448 93.0456 8.07017L89.0611 11.9493L90.0016 17.4324C90.0224 17.5535 90.0088 17.678 89.9625 17.7918C89.9162 17.9057 89.839 18.0042 89.7396 18.0765C89.6402 18.1487 89.5225 18.1917 89.4 18.2006C89.2774 18.2094 89.1548 18.1839 89.0461 18.1267L84.1227 15.5419L79.1985 18.1291C79.0897 18.186 78.9671 18.2113 78.8446 18.2023C78.7221 18.1932 78.6045 18.1502 78.5052 18.0779C78.4058 18.0057 78.3287 17.9071 78.2823 17.7933C78.236 17.6795 78.2224 17.5551 78.243 17.434L79.1835 11.9541L75.199 8.07492C75.111 7.98923 75.0487 7.8806 75.0192 7.76133C74.9897 7.64206 74.9942 7.51692 75.0322 7.40008C75.0702 7.28324 75.1402 7.17937 75.2341 7.10024C75.3281 7.0211 75.4424 6.96987 75.564 6.95234L81.0692 6.14721L83.5313 1.15971C83.5858 1.04953 83.67 0.956766 83.7743 0.891878C83.8787 0.82699 83.9991 0.792563 84.1221 0.792481C84.245 0.792398 84.3654 0.826664 84.4699 0.891412C84.5744 0.95616 84.6587 1.04881 84.7133 1.15892Z" fill="#84878A"/>
</g>
<g clip-path="url(#clip3_2780_1067)">
<path d="M109.713 1.15892L112.175 6.14642L117.681 6.94759C117.802 6.96512 117.916 7.01636 118.01 7.09549C118.104 7.17462 118.174 7.27849 118.212 7.39533C118.25 7.51217 118.255 7.63731 118.225 7.75658C118.196 7.87585 118.134 7.98448 118.046 8.07017L114.061 11.9493L115.002 17.4324C115.022 17.5535 115.009 17.678 114.962 17.7918C114.916 17.9057 114.839 18.0042 114.74 18.0765C114.64 18.1487 114.523 18.1917 114.4 18.2006C114.277 18.2094 114.155 18.1839 114.046 18.1267L109.123 15.5419L104.199 18.1291C104.09 18.186 103.967 18.2113 103.845 18.2023C103.722 18.1932 103.605 18.1502 103.505 18.0779C103.406 18.0057 103.329 17.9071 103.282 17.7933C103.236 17.6795 103.222 17.5551 103.243 17.434L104.183 11.9541L100.199 8.07492C100.111 7.98923 100.049 7.8806 100.019 7.76133C99.9897 7.64206 99.9942 7.51692 100.032 7.40008C100.07 7.28324 100.14 7.17937 100.234 7.10024C100.328 7.0211 100.442 6.96987 100.564 6.95234L106.069 6.14721L108.531 1.15971C108.586 1.04953 108.67 0.956766 108.774 0.891878C108.879 0.82699 108.999 0.792563 109.122 0.792481C109.245 0.792398 109.365 0.826664 109.47 0.891412C109.574 0.95616 109.659 1.04881 109.713 1.15892Z" fill="#84878A"/>
</g>
<defs>
<clipPath id="clip0_2780_1067">
<rect width="19" height="19" fill="white" transform="translate(24.623)"/>
</clipPath>
<clipPath id="clip1_2780_1067">
<rect width="19" height="19" fill="white" transform="translate(49.623)"/>
</clipPath>
<clipPath id="clip2_2780_1067">
<rect width="19" height="19" fill="white" transform="translate(74.623)"/>
</clipPath>
<clipPath id="clip3_2780_1067">
<rect width="19" height="19" fill="white" transform="translate(99.623)"/>
</clipPath>
</defs>
</svg>
