<svg width="40" height="40" viewBox="0 0 40 40" fill="none" xmlns="http://www.w3.org/2000/svg">
<path d="M0 12.0632C0 5.84928 5.03739 0.81189 11.2513 0.81189H27.7533C33.9672 0.81189 39.0046 5.84928 39.0046 12.0632V28.5652C39.0046 34.7791 33.9672 39.8165 27.7533 39.8165H11.2513C5.03739 39.8165 0 34.7791 0 28.5652V12.0632Z" fill="#EBD96B"/>
<path d="M23.6367 21.1112L24.1575 17.7175H20.9012V15.5152C20.9012 14.5868 21.3561 13.6818 22.8145 13.6818H24.2949V10.7924C24.2949 10.7924 22.9515 10.5631 21.667 10.5631C18.9853 10.5631 17.2324 12.1885 17.2324 15.131V17.7175H14.2515V21.1112H17.2324V29.3153H20.9012V21.1112H23.6367Z" fill="black"/>
</svg>
