<svg width="40" height="40" viewBox="0 0 40 40" fill="none" xmlns="http://www.w3.org/2000/svg">
<path d="M0.505859 12.0632C0.505859 5.84928 5.54325 0.81189 11.7572 0.81189H28.2592C34.4731 0.81189 39.5105 5.84928 39.5105 12.0632V28.5652C39.5105 34.7791 34.4731 39.8165 28.2591 39.8165H11.7572C5.54325 39.8165 0.505859 34.7791 0.505859 28.5652V12.0632Z" fill="#EBD96B"/>
<path d="M19.9678 16.0618C17.6385 16.0618 15.7596 17.9407 15.7596 20.2701C15.7596 22.5995 17.6385 24.4783 19.9678 24.4783C22.2972 24.4783 24.1761 22.5995 24.1761 20.2701C24.1761 17.9407 22.2972 16.0618 19.9678 16.0618ZM19.9678 23.006C18.4625 23.006 17.2319 21.779 17.2319 20.2701C17.2319 18.7611 18.4589 17.5342 19.9678 17.5342C21.4768 17.5342 22.7038 18.7611 22.7038 20.2701C22.7038 21.779 21.4731 23.006 19.9678 23.006V23.006ZM25.3298 15.8897C25.3298 16.4354 24.8903 16.8712 24.3482 16.8712C23.8025 16.8712 23.3667 16.4317 23.3667 15.8897C23.3667 15.3476 23.8062 14.9081 24.3482 14.9081C24.8903 14.9081 25.3298 15.3476 25.3298 15.8897ZM28.117 16.8859C28.0547 15.571 27.7544 14.4063 26.7911 13.4468C25.8316 12.4872 24.6669 12.1868 23.352 12.1209C21.9969 12.044 17.9351 12.044 16.58 12.1209C15.2688 12.1832 14.1041 12.4835 13.1409 13.4431C12.1776 14.4027 11.8809 15.5674 11.815 16.8822C11.7381 18.2374 11.7381 22.2991 11.815 23.6543C11.8773 24.9691 12.1776 26.1338 13.1409 27.0934C14.1041 28.053 15.2651 28.3533 16.58 28.4192C17.9351 28.4961 21.9969 28.4961 23.352 28.4192C24.6669 28.357 25.8316 28.0566 26.7911 27.0934C27.7507 26.1338 28.0511 24.9691 28.117 23.6543C28.1939 22.2991 28.1939 18.241 28.117 16.8859V16.8859ZM26.3663 25.1083C26.0806 25.8262 25.5276 26.3792 24.8061 26.6685C23.7256 27.0971 21.1618 26.9982 19.9678 26.9982C18.7738 26.9982 16.2064 27.0934 15.1296 26.6685C14.4118 26.3829 13.8587 25.8298 13.5694 25.1083C13.1409 24.0278 13.2397 21.4641 13.2397 20.2701C13.2397 19.0761 13.1445 16.5086 13.5694 15.4319C13.855 14.714 14.4081 14.161 15.1296 13.8716C16.2101 13.4431 18.7738 13.542 19.9678 13.542C21.1618 13.542 23.7293 13.4468 24.8061 13.8716C25.5239 14.1573 26.077 14.7103 26.3663 15.4319C26.7948 16.5123 26.6959 19.0761 26.6959 20.2701C26.6959 21.4641 26.7948 24.0315 26.3663 25.1083Z" fill="black"/>
</svg>
