<svg width="46" height="46" viewBox="0 0 46 46" fill="none" xmlns="http://www.w3.org/2000/svg">
<path opacity="0.12" d="M17.0505 28.7502H34.6991C36.6673 28.7502 37.6514 28.7502 38.4433 28.3883C39.1412 28.0693 39.7326 27.5564 40.147 26.9106C40.6173 26.1778 40.7565 25.2037 41.0348 23.2553L41.8534 17.5249C41.9614 16.769 42.0154 16.391 41.9009 16.0973C41.8003 15.8395 41.6137 15.6244 41.3727 15.4884C41.0981 15.3334 40.7163 15.3334 39.9527 15.3334H9.58315L10.7149 23.2553C10.9932 25.2037 11.1324 26.1778 11.6026 26.9106C12.0171 27.5564 12.6085 28.0693 13.3064 28.3883C14.0983 28.7502 15.0824 28.7502 17.0505 28.7502Z" fill="url(#paint0_linear_2423_1536)"/>
<path fill-rule="evenodd" clip-rule="evenodd" d="M1.91635 0.666865L2.87468 0.666748H2.87487L3.50362 0.666763L3.54926 0.666764C4.24841 0.666763 4.84252 0.666763 5.33385 0.704383C5.85144 0.744014 6.34733 0.830216 6.83124 1.05137C7.57272 1.39026 8.20108 1.93525 8.6414 2.62136C8.92876 3.06913 9.08422 3.54786 9.19663 4.05464C9.30334 4.53567 9.38734 5.12375 9.48619 5.8158L9.4862 5.81591L9.48621 5.81597L9.49267 5.86116L10.6673 14.0834H18.2656L20.72 6.72031L20.7831 6.53032L20.7831 6.5303C21.1125 5.53845 21.3811 4.72989 21.9019 4.1071C22.3583 3.56131 22.9444 3.13883 23.6066 2.87842C24.3621 2.58127 25.2141 2.58221 26.2592 2.58336L26.4594 2.58351L34.8735 2.58344L35.0737 2.58329C36.1189 2.58212 36.9709 2.58117 37.7264 2.87832C38.3885 3.13873 38.9747 3.56121 39.4311 4.10701C39.952 4.72981 40.2205 5.5384 40.5499 6.53027L40.6131 6.72026L42.3968 12.0715L42.4261 12.1594L42.4262 12.1596C42.7547 13.145 42.9587 13.7569 43.076 14.3914C43.1799 14.9541 43.2314 15.5253 43.2298 16.0975C43.228 16.7428 43.1367 17.3813 42.9897 18.4096L42.9766 18.5015L42.2723 23.4321L42.2655 23.4796C42.1321 24.4135 42.022 25.1839 41.8832 25.8095C41.7387 26.461 41.5452 27.0464 41.199 27.5858C40.6551 28.4333 39.8788 29.1066 38.9629 29.5252C38.38 29.7916 37.7731 29.9004 37.1077 29.9513C36.4687 30.0002 35.6904 30.0002 34.7469 30.0002H34.6991H17.0505H17.0028H17.0027H17.0027C16.0593 30.0002 15.281 30.0002 14.642 29.9513C13.9766 29.9004 13.3697 29.7916 12.7868 29.5252C11.8708 29.1066 11.0946 28.4333 10.5506 27.5858C10.2045 27.0464 10.0109 26.461 9.86643 25.8095C9.72765 25.1839 9.61759 24.4134 9.48418 23.4795L9.48417 23.4794L9.48417 23.4794L9.47741 23.4321L7.01779 6.21472C6.91072 5.46522 6.83948 4.97256 6.75596 4.59605C6.67583 4.23481 6.60275 4.07344 6.53741 3.97162C6.3561 3.6891 6.09736 3.46469 5.79204 3.32515C5.68201 3.27487 5.51192 3.22534 5.14299 3.19709C4.75845 3.16764 4.26066 3.16678 3.50356 3.16676L2.87499 3.16675H2.87481L1.91666 3.16686C1.2263 3.16695 0.666588 2.60737 0.666504 1.91702C0.66642 1.22666 1.226 0.666949 1.91635 0.666865ZM19.1377 16.5834C19.1571 16.5839 19.1764 16.5839 19.1957 16.5834H40.7053C40.6737 16.9358 40.6096 17.3927 40.5017 18.1479L39.7974 23.0785C39.6555 24.0716 39.5582 24.7469 39.4426 25.2681C39.3303 25.774 39.2192 26.0421 39.095 26.2355C38.8101 26.6795 38.4035 27.0321 37.9237 27.2514C37.7147 27.3469 37.4336 27.4191 36.9169 27.4586C36.3846 27.4993 35.7023 27.5002 34.6991 27.5002H17.0505C16.0474 27.5002 15.3651 27.4993 14.8328 27.4586C14.3161 27.4191 14.035 27.3469 13.8259 27.2514C13.3462 27.0321 12.9396 26.6795 12.6546 26.2355C12.5305 26.0421 12.4193 25.774 12.3071 25.2681C12.1915 24.7469 12.0942 24.0716 11.9523 23.0785L11.0244 16.5834H19.1377ZM40.423 14.0834H20.9008L23.0917 7.51089C23.5188 6.22949 23.6437 5.92134 23.8197 5.71087C24.0076 5.48613 24.249 5.31217 24.5216 5.20495C24.7769 5.10453 25.1087 5.08352 26.4594 5.08351L34.8735 5.08344C36.2242 5.08343 36.5561 5.10444 36.8114 5.20486C37.084 5.31208 37.3254 5.48604 37.5133 5.71079C37.6894 5.92126 37.8142 6.22941 38.2414 7.51083L40.0251 12.8621C40.2051 13.4022 40.3314 13.7831 40.423 14.0834ZM14.6665 38.3334C14.6665 36.9067 15.8231 35.7501 17.2498 35.7501C18.6766 35.7501 19.8332 36.9067 19.8332 38.3334C19.8332 39.7602 18.6766 40.9167 17.2498 40.9167C15.8231 40.9167 14.6665 39.7602 14.6665 38.3334ZM17.2498 33.2501C14.4424 33.2501 12.1665 35.526 12.1665 38.3334C12.1665 41.1409 14.4424 43.4167 17.2498 43.4167C20.0573 43.4167 22.3332 41.1409 22.3332 38.3334C22.3332 35.526 20.0573 33.2501 17.2498 33.2501ZM33.8332 38.3334C33.8332 36.9067 34.9898 35.7501 36.4165 35.7501C37.8432 35.7501 38.9998 36.9067 38.9998 38.3334C38.9998 39.7602 37.8432 40.9167 36.4165 40.9167C34.9898 40.9167 33.8332 39.7602 33.8332 38.3334ZM36.4165 33.2501C33.6091 33.2501 31.3332 35.526 31.3332 38.3334C31.3332 41.1409 33.6091 43.4167 36.4165 43.4167C39.224 43.4167 41.4998 41.1409 41.4998 38.3334C41.4998 35.526 39.224 33.2501 36.4165 33.2501Z" fill="url(#paint1_linear_2423_1536)"/>
<defs>
<linearGradient id="paint0_linear_2423_1536" x1="1.9165" y1="1.91675" x2="42.8579" y2="27.3101" gradientUnits="userSpaceOnUse">
<stop stop-color="#FBFF25"/>
<stop offset="0.21875" stop-color="#E7E542"/>
<stop offset="0.453125" stop-color="#AAEA5E"/>
<stop offset="0.697917" stop-color="#51D9C6"/>
<stop offset="1" stop-color="#4AA8FF"/>
</linearGradient>
<linearGradient id="paint1_linear_2423_1536" x1="0.666504" y1="0.666748" x2="52.1109" y2="21.9525" gradientUnits="userSpaceOnUse">
<stop stop-color="#FBFF25"/>
<stop offset="0.21875" stop-color="#E7E542"/>
<stop offset="0.453125" stop-color="#AAEA5E"/>
<stop offset="0.697917" stop-color="#51D9C6"/>
<stop offset="1" stop-color="#4AA8FF"/>
</linearGradient>
</defs>
</svg>
