<svg width="7" height="12" viewBox="0 0 7 12" fill="none" xmlns="http://www.w3.org/2000/svg">
<path fill-rule="evenodd" clip-rule="evenodd" d="M1.13666 1.46967C1.42956 1.17678 1.90443 1.17678 2.19732 1.46967L3.93458 3.20693L3.9561 3.22845C4.33381 3.60615 4.64908 3.9214 4.88559 4.2C5.13226 4.49056 5.337 4.79021 5.45397 5.1502C5.63343 5.70252 5.63343 6.29748 5.45397 6.8498C5.337 7.20979 5.13226 7.50944 4.88559 7.8C4.64908 8.0786 4.33382 8.39385 3.95611 8.77154L3.93458 8.79307L2.19732 10.5303C1.90443 10.8232 1.42956 10.8232 1.13666 10.5303C0.843769 10.2374 0.843769 9.76256 1.13666 9.46967L2.87392 7.73241C3.27869 7.32764 3.54996 7.05555 3.74208 6.82924C3.92852 6.60962 3.99598 6.48294 4.02739 6.38627C4.10896 6.13522 4.10896 5.86478 4.02739 5.61373C3.99598 5.51706 3.92852 5.39038 3.74208 5.17076C3.54996 4.94445 3.27869 4.67236 2.87392 4.26759L1.13666 2.53033C0.843769 2.23744 0.843769 1.76256 1.13666 1.46967Z" fill="url(#paint0_linear_2717_763)"/>
<path d="M2.19732 1.46967L2.72765 0.93934L2.72765 0.93934L2.19732 1.46967ZM1.13666 1.46967L0.606332 0.93934L0.606332 0.93934L1.13666 1.46967ZM3.93458 3.20693L3.40425 3.73726L3.40426 3.73727L3.93458 3.20693ZM3.9561 3.22845L3.42578 3.75879L3.9561 3.22845ZM4.88559 4.2L4.31384 4.68538L4.31384 4.68538L4.88559 4.2ZM5.45397 5.1502L4.74068 5.38197L4.74068 5.38197L5.45397 5.1502ZM5.45397 6.8498L6.16726 7.08156L6.16726 7.08156L5.45397 6.8498ZM4.88559 7.8L5.45734 8.28539L5.45734 8.28539L4.88559 7.8ZM3.95611 8.77154L3.42579 8.2412L3.42579 8.2412L3.95611 8.77154ZM3.93458 8.79307L3.40426 8.26273L3.40425 8.26274L3.93458 8.79307ZM2.19732 10.5303L1.66699 10L1.66699 10L2.19732 10.5303ZM1.13666 10.5303L1.66699 10L1.66699 10L1.13666 10.5303ZM1.13666 9.46967L0.606332 8.93934L0.606332 8.93934L1.13666 9.46967ZM2.87392 7.73241L3.40425 8.26274L3.40425 8.26274L2.87392 7.73241ZM3.74208 6.82924L3.17033 6.34386L3.17033 6.34386L3.74208 6.82924ZM4.02739 6.38627L3.31409 6.15451L3.31409 6.15451L4.02739 6.38627ZM4.02739 5.61373L4.74068 5.38197L4.74068 5.38197L4.02739 5.61373ZM3.74208 5.17076L4.31384 4.68538L4.31384 4.68538L3.74208 5.17076ZM2.87392 4.26759L3.40425 3.73726L3.40425 3.73726L2.87392 4.26759ZM1.13666 2.53033L0.606332 3.06066L0.606332 3.06066L1.13666 2.53033ZM2.72765 0.93934C2.14187 0.353553 1.19212 0.353553 0.606332 0.93934L1.66699 2L1.66699 2L2.72765 0.93934ZM4.46491 2.6766L2.72765 0.93934L1.66699 2L3.40425 3.73726L4.46491 2.6766ZM4.48642 2.69811L4.4649 2.67659L3.40426 3.73727L3.42578 3.75879L4.48642 2.69811ZM5.45735 3.71461C5.19663 3.40751 4.85641 3.06808 4.48642 2.69811L3.42578 3.75879C3.81122 4.14421 4.10153 4.4353 4.31384 4.68538L5.45735 3.71461ZM6.16726 4.91844C6.00755 4.4269 5.73426 4.0408 5.45734 3.71461L4.31384 4.68538C4.53026 4.94032 4.66645 5.15352 4.74068 5.38197L6.16726 4.91844ZM6.16726 7.08156C6.39567 6.37861 6.39567 5.62139 6.16726 4.91844L4.74068 5.38197C4.87119 5.78365 4.87119 6.21635 4.74068 6.61803L6.16726 7.08156ZM5.45734 8.28539C5.73426 7.9592 6.00755 7.5731 6.16726 7.08156L4.74068 6.61803C4.66645 6.84648 4.53026 7.05968 4.31384 7.31462L5.45734 8.28539ZM4.48643 9.30188C4.85641 8.93191 5.19663 8.59249 5.45734 8.28539L4.31384 7.31462C4.10153 7.5647 3.81122 7.85578 3.42579 8.2412L4.48643 9.30188ZM4.4649 9.32341L4.48643 9.30188L3.42579 8.2412L3.40426 8.26273L4.4649 9.32341ZM2.72765 11.0607L4.46491 9.3234L3.40425 8.26274L1.66699 10L2.72765 11.0607ZM0.606332 11.0607C1.19212 11.6464 2.14187 11.6464 2.72765 11.0607L1.66699 10L1.66699 10L0.606332 11.0607ZM0.606332 8.93934C0.0205461 9.52513 0.0205449 10.4749 0.606333 11.0607L1.66699 10L1.66699 10L0.606332 8.93934ZM2.34359 7.20208L0.606332 8.93934L1.66699 10L3.40425 8.26274L2.34359 7.20208ZM3.17033 6.34386C3.00269 6.54132 2.75738 6.78829 2.34359 7.20208L3.40425 8.26274C3.8 7.86699 4.09722 7.56978 4.31384 7.31462L3.17033 6.34386ZM3.31409 6.15451C3.32555 6.11925 3.32693 6.15939 3.17033 6.34386L4.31384 7.31462C4.53011 7.05986 4.66641 6.84662 4.74068 6.61803L3.31409 6.15451ZM3.31409 5.84549C3.34672 5.94591 3.34672 6.05409 3.31409 6.15451L4.74068 6.61803C4.87119 6.21635 4.87119 5.78365 4.74068 5.38197L3.31409 5.84549ZM3.17033 5.65614C3.32693 5.84061 3.32555 5.88075 3.31409 5.84549L4.74068 5.38197C4.66641 5.15338 4.53011 4.94014 4.31384 4.68538L3.17033 5.65614ZM2.34359 4.79792C2.75738 5.21171 3.00269 5.45868 3.17033 5.65614L4.31384 4.68538C4.09722 4.43022 3.8 4.13301 3.40425 3.73726L2.34359 4.79792ZM0.606332 3.06066L2.34359 4.79792L3.40425 3.73726L1.66699 2L0.606332 3.06066ZM0.606332 0.93934C0.0205456 1.52513 0.0205456 2.47487 0.606332 3.06066L1.66699 2L1.66699 2L0.606332 0.93934Z" fill="url(#paint1_linear_2717_763)"/>
<defs>
<linearGradient id="paint0_linear_2717_763" x1="0.916992" y1="1.25" x2="7.26486" y2="2.54723" gradientUnits="userSpaceOnUse">
<stop stop-color="#FBFF25"/>
<stop offset="0.21875" stop-color="#E7E542"/>
<stop offset="0.453125" stop-color="#AAEA5E"/>
<stop offset="0.697917" stop-color="#51D9C6"/>
<stop offset="1" stop-color="#4AA8FF"/>
</linearGradient>
<linearGradient id="paint1_linear_2717_763" x1="0.916992" y1="1.25" x2="7.26486" y2="2.54723" gradientUnits="userSpaceOnUse">
<stop stop-color="#FBFF25"/>
<stop offset="0.21875" stop-color="#E7E542"/>
<stop offset="0.453125" stop-color="#AAEA5E"/>
<stop offset="0.697917" stop-color="#51D9C6"/>
<stop offset="1" stop-color="#4AA8FF"/>
</linearGradient>
</defs>
</svg>
