<svg width="46" height="46" viewBox="0 0 46 46" fill="none" xmlns="http://www.w3.org/2000/svg">
<path opacity="0.12" d="M17.25 22.3667C17.25 21.2466 17.25 20.6866 17.468 20.2588C17.6597 19.8824 17.9657 19.5765 18.342 19.3847C18.7698 19.1667 19.3299 19.1667 20.45 19.1667H38.9667C40.0868 19.1667 40.6468 19.1667 41.0746 19.3847C41.451 19.5765 41.7569 19.8824 41.9487 20.2588C42.1667 20.6866 42.1667 21.2466 42.1667 22.3667V39.0304C42.1667 40.3303 42.1667 40.9803 41.9704 41.3253C41.6379 41.9096 40.9572 42.2013 40.3048 42.0391C39.9196 41.9433 39.4489 41.4951 38.5076 40.5986V40.5986C37.8749 39.996 37.5586 39.6947 37.2075 39.4586C36.6199 39.0633 35.955 38.7973 35.2569 38.6783C34.8398 38.6072 34.4029 38.6072 33.5292 38.6072H20.45C19.3299 38.6072 18.7698 38.6072 18.342 38.3892C17.9657 38.1975 17.6597 37.8915 17.468 37.5152C17.25 37.0874 17.25 36.5273 17.25 35.4072V22.3667Z" fill="url(#paint0_linear_2423_1558)"/>
<path fill-rule="evenodd" clip-rule="evenodd" d="M29.7002 2.58325L29.75 2.58325C30.5476 2.58323 31.2208 2.58322 31.7723 2.62828C32.3499 2.67547 32.9032 2.77823 33.4296 3.04648C34.2293 3.45394 34.8795 4.1041 35.2869 4.90379C35.5552 5.43025 35.658 5.98351 35.7051 6.56107C35.7502 7.11254 35.7502 7.7857 35.7502 8.58325V8.5834V8.63325V13.4166V14.3749C35.7502 15.0653 35.1905 15.6249 34.5002 15.6249C33.8098 15.6249 33.2502 15.0653 33.2502 14.3749V13.4166V8.63325C33.2502 7.77255 33.2492 7.2022 33.2134 6.76465C33.1789 6.34169 33.1182 6.15405 33.0594 6.03877C32.8916 5.70949 32.6239 5.44177 32.2946 5.27399C32.1794 5.21525 31.9917 5.15453 31.5688 5.11997C31.1312 5.08423 30.5609 5.08325 29.7002 5.08325H8.6335C7.77279 5.08325 7.20244 5.08423 6.76489 5.11997C6.34194 5.15453 6.1543 5.21525 6.03901 5.27399C5.70973 5.44177 5.44201 5.70949 5.27424 6.03877C5.2155 6.15405 5.15478 6.34169 5.12022 6.76465C5.08447 7.2022 5.0835 7.77255 5.0835 8.63325V27.7833C5.0835 28.5806 5.08475 29.0919 5.1182 29.4587C5.13436 29.6358 5.15501 29.7287 5.16554 29.7684C5.19944 29.7992 5.24118 29.8201 5.28613 29.8287C5.32419 29.8133 5.41094 29.7741 5.56234 29.6807C5.87585 29.4874 6.28559 29.1817 6.9235 28.7033L8.61683 27.4333L8.70839 27.3646C9.41197 26.8366 9.89923 26.471 10.4458 26.2067C10.9292 25.9729 11.4407 25.8024 11.9677 25.6994C12.5635 25.5829 13.1727 25.583 14.0523 25.5832H14.0524L14.1668 25.5833H16.0002V22.3666L16.0002 22.3207C16.0001 21.8 16.0001 21.3362 16.0316 20.9512C16.0651 20.5404 16.1406 20.1106 16.3544 19.6911C16.666 19.0796 17.1632 18.5824 17.7747 18.2708C18.1942 18.0571 18.624 17.9816 19.0348 17.948C19.4197 17.9165 19.8835 17.9166 20.4043 17.9166L20.4502 17.9166H38.9668L39.0127 17.9166C39.5335 17.9166 39.9973 17.9165 40.3822 17.948C40.793 17.9816 41.2228 18.0571 41.6423 18.2708C42.2538 18.5824 42.751 19.0796 43.0626 19.6911C43.2763 20.1106 43.3519 20.5404 43.3854 20.9512C43.4169 21.3361 43.4169 21.7999 43.4168 22.3207V22.3666V39.0302V39.0735V39.0737C43.4168 39.6866 43.4169 40.2089 43.3895 40.6189C43.3635 41.0097 43.3055 41.5066 43.057 41.9433C42.4474 43.0146 41.1995 43.5494 40.0033 43.252C39.5157 43.1308 39.1159 42.8301 38.8149 42.5795C38.4991 42.3164 38.1209 41.9562 37.6769 41.5333L37.6457 41.5036C36.9825 40.872 36.7529 40.659 36.51 40.4956C36.0692 40.1991 35.5706 39.9996 35.047 39.9104C34.7584 39.8612 34.4452 39.8571 33.5294 39.8571H20.4502H20.4044C19.8836 39.8571 19.4197 39.8571 19.0348 39.8257C18.624 39.7921 18.1942 39.7166 17.7747 39.5028C17.1632 39.1912 16.666 38.6941 16.3544 38.0825C16.1406 37.663 16.0651 37.2333 16.0316 36.8224C16.0001 36.4375 16.0001 35.9737 16.0002 35.4529L16.0002 35.4071V28.0833H14.1668C13.1299 28.0833 12.7763 28.0886 12.4474 28.1529C12.1312 28.2147 11.8242 28.317 11.5342 28.4573C11.2324 28.6032 10.9464 28.8111 10.1168 29.4333L8.4235 30.7033L8.37758 30.7377L8.37755 30.7377C7.79893 31.1717 7.29711 31.5481 6.87448 31.8087C6.45692 32.0662 5.91241 32.3459 5.27633 32.3327C4.45107 32.3155 3.67716 31.9285 3.16827 31.2786C2.77605 30.7777 2.67309 30.1743 2.62854 29.6857C2.58344 29.1913 2.58347 28.564 2.5835 27.8407V27.7833V8.63325V8.58337V8.58332C2.58348 7.78574 2.58346 7.11256 2.62852 6.56107C2.67571 5.98351 2.77848 5.43025 3.04672 4.90379C3.45418 4.1041 4.10435 3.45394 4.90404 3.04648C5.43049 2.77823 5.98376 2.67547 6.56131 2.62828C7.11282 2.58322 7.78603 2.58323 8.58364 2.58325L8.6335 2.58325H29.7002ZM18.5002 26.8355V35.4071C18.5002 35.9877 18.5011 36.3481 18.5233 36.6189C18.5441 36.8733 18.5772 36.9384 18.5818 36.9474L18.5819 36.9476C18.6538 37.0887 18.7685 37.2034 18.9097 37.2753L18.9098 37.2754C18.9189 37.28 18.9839 37.3132 19.2384 37.334C19.5091 37.3561 19.8695 37.3571 20.4502 37.3571H33.5294L33.6311 37.357C34.4072 37.3569 34.944 37.3568 35.4671 37.4459C36.3397 37.5947 37.1708 37.9271 37.9054 38.4213C38.3456 38.7174 38.7343 39.0877 39.2962 39.6231L39.3698 39.6932C39.8537 40.1541 40.1711 40.4554 40.4149 40.6585C40.542 40.7643 40.6148 40.8131 40.6449 40.8323C40.7283 40.8397 40.8101 40.8046 40.8623 40.7392C40.8692 40.704 40.8841 40.6177 40.8951 40.4527C40.9162 40.1361 40.9168 39.6984 40.9168 39.0302V22.3666C40.9168 21.7859 40.9159 21.4256 40.8937 21.1548C40.8729 20.9003 40.8398 20.8353 40.8352 20.8263L40.8351 20.8261C40.7632 20.685 40.6484 20.5702 40.5073 20.4983L40.5071 20.4982C40.4981 20.4936 40.4331 20.4605 40.1786 20.4397C39.9078 20.4176 39.5475 20.4166 38.9668 20.4166H20.4502C19.8695 20.4166 19.5092 20.4176 19.2384 20.4397C18.9839 20.4605 18.9189 20.4936 18.9098 20.4982L18.9097 20.4983C18.7685 20.5702 18.6538 20.685 18.5819 20.8261L18.5818 20.8263C18.5772 20.8353 18.5441 20.9003 18.5233 21.1548C18.5011 21.4256 18.5002 21.7859 18.5002 22.3666V26.831C18.5002 26.8318 18.5002 26.8325 18.5002 26.8333C18.5002 26.834 18.5002 26.8347 18.5002 26.8355Z" fill="url(#paint1_linear_2423_1558)"/>
<defs>
<linearGradient id="paint0_linear_2423_1558" x1="17.25" y1="19.1667" x2="47.327" y2="31.666" gradientUnits="userSpaceOnUse">
<stop stop-color="#FBFF25"/>
<stop offset="0.21875" stop-color="#E7E542"/>
<stop offset="0.453125" stop-color="#AAEA5E"/>
<stop offset="0.697917" stop-color="#51D9C6"/>
<stop offset="1" stop-color="#4AA8FF"/>
</linearGradient>
<linearGradient id="paint1_linear_2423_1558" x1="2.5835" y1="2.58325" x2="51.844" y2="23.0965" gradientUnits="userSpaceOnUse">
<stop stop-color="#FBFF25"/>
<stop offset="0.21875" stop-color="#E7E542"/>
<stop offset="0.453125" stop-color="#AAEA5E"/>
<stop offset="0.697917" stop-color="#51D9C6"/>
<stop offset="1" stop-color="#4AA8FF"/>
</linearGradient>
</defs>
</svg>
