<svg width="46" height="46" viewBox="0 0 46 46" fill="none" xmlns="http://www.w3.org/2000/svg">
<path opacity="0.12" fill-rule="evenodd" clip-rule="evenodd" d="M30.6668 9.58325C30.6668 6.40762 33.2412 3.83325 36.4168 3.83325C39.5925 3.83325 42.1668 6.40761 42.1668 9.58325C42.1668 12.7589 39.5925 15.3333 36.4168 15.3333C33.2412 15.3333 30.6668 12.7589 30.6668 9.58325ZM3.8335 22.9999C3.8335 19.8243 6.40786 17.2499 9.5835 17.2499C12.7591 17.2499 15.3335 19.8243 15.3335 22.9999C15.3335 26.1756 12.7591 28.7499 9.5835 28.7499C6.40786 28.7499 3.8335 26.1756 3.8335 22.9999ZM36.4168 30.6666C33.2412 30.6666 30.6668 33.2409 30.6668 36.4166C30.6668 39.5922 33.2412 42.1666 36.4168 42.1666C39.5925 42.1666 42.1668 39.5922 42.1668 36.4166C42.1668 33.2409 39.5925 30.6666 36.4168 30.6666Z" fill="url(#paint0_linear_2423_1547)"/>
<path fill-rule="evenodd" clip-rule="evenodd" d="M29.5281 8.33325C30.1175 5.06368 32.9775 2.58325 36.4168 2.58325C40.2828 2.58325 43.4168 5.71726 43.4168 9.58325C43.4168 13.4492 40.2828 16.5833 36.4168 16.5833C32.9775 16.5833 30.1175 14.1028 29.5281 10.8333L17.2502 10.8333C14.0885 10.8333 11.461 13.1198 10.931 16.1295C14.1522 16.7576 16.5835 19.5949 16.5835 22.9999C16.5835 26.405 14.1522 29.2422 10.931 29.8703C11.461 32.88 14.0885 35.1666 17.2502 35.1666L29.5281 35.1666C30.1175 31.897 32.9775 29.4166 36.4168 29.4166C40.2828 29.4166 43.4168 32.5506 43.4168 36.4166C43.4168 40.2826 40.2828 43.4166 36.4168 43.4166C32.9775 43.4166 30.1175 40.9362 29.5281 37.6666L17.2502 37.6666C12.7159 37.6666 8.97203 34.2821 8.40718 29.9015C5.10126 29.3421 2.5835 26.465 2.5835 22.9999C2.5835 19.5348 5.10126 16.6577 8.40718 16.0983C8.97203 11.7178 12.7158 8.33326 17.2502 8.33326L29.5281 8.33325ZM31.9168 36.4146C31.9168 36.4153 31.9168 36.4159 31.9168 36.4166C31.9168 38.9019 33.9315 40.9166 36.4168 40.9166C38.9021 40.9166 40.9168 38.9019 40.9168 36.4166C40.9168 33.9313 38.9021 31.9166 36.4168 31.9166C33.9322 31.9166 31.9179 33.9302 31.9168 36.4146ZM14.0835 22.9999C14.0835 25.4852 12.0688 27.4999 9.5835 27.4999C7.09822 27.4999 5.0835 25.4852 5.0835 22.9999C5.0835 20.5146 7.09821 18.4999 9.5835 18.4999C12.0688 18.4999 14.0835 20.5146 14.0835 22.9999ZM31.9168 9.58325C31.9168 12.0685 33.9315 14.0833 36.4168 14.0833C38.9021 14.0833 40.9168 12.0685 40.9168 9.58325C40.9168 7.09797 38.9021 5.08325 36.4168 5.08325C33.9315 5.08325 31.9168 7.09797 31.9168 9.58325Z" fill="url(#paint1_linear_2423_1547)"/>
<defs>
<linearGradient id="paint0_linear_2423_1547" x1="3.8335" y1="3.83325" x2="50.1058" y2="23.0629" gradientUnits="userSpaceOnUse">
<stop stop-color="#FBFF25"/>
<stop offset="0.21875" stop-color="#E7E542"/>
<stop offset="0.453125" stop-color="#AAEA5E"/>
<stop offset="0.697917" stop-color="#51D9C6"/>
<stop offset="1" stop-color="#4AA8FF"/>
</linearGradient>
<linearGradient id="paint1_linear_2423_1547" x1="2.5835" y1="2.58325" x2="51.8736" y2="23.067" gradientUnits="userSpaceOnUse">
<stop stop-color="#FBFF25"/>
<stop offset="0.21875" stop-color="#E7E542"/>
<stop offset="0.453125" stop-color="#AAEA5E"/>
<stop offset="0.697917" stop-color="#51D9C6"/>
<stop offset="1" stop-color="#4AA8FF"/>
</linearGradient>
</defs>
</svg>
