<svg width="40" height="40" viewBox="0 0 40 40" fill="none" xmlns="http://www.w3.org/2000/svg">
<path d="M0.0117188 12.0632C0.0117188 5.84928 5.04911 0.81189 11.2631 0.81189H27.765C33.979 0.81189 39.0163 5.84928 39.0163 12.0632V28.5652C39.0163 34.7791 33.9789 39.8165 27.765 39.8165H11.263C5.04911 39.8165 0.0117188 34.7791 0.0117188 28.5652V12.0632Z" fill="#EBD96B"/>
<path d="M28.8378 16.609C28.8497 16.7756 28.8497 16.9422 28.8497 17.1087C28.8497 22.1894 24.9827 28.0436 17.9149 28.0436C15.7374 28.0436 13.7147 27.4129 12.0132 26.3183C12.3226 26.354 12.62 26.3659 12.9413 26.3659C14.7379 26.3659 16.3919 25.7591 17.7126 24.7239C16.023 24.6882 14.6071 23.5816 14.1192 22.0586C14.3572 22.0942 14.5952 22.118 14.8451 22.118C15.1901 22.118 15.5352 22.0704 15.8564 21.9872C14.0954 21.6302 12.7747 20.0834 12.7747 18.2153V18.1677C13.2863 18.4533 13.8813 18.6318 14.5118 18.6556C13.4767 17.9654 12.7985 16.7875 12.7985 15.4548C12.7985 14.7409 12.9888 14.0865 13.322 13.5154C15.2139 15.8475 18.0577 17.3705 21.2465 17.5371C21.187 17.2515 21.1513 16.9541 21.1513 16.6566C21.1513 14.5386 22.8647 12.8134 24.9945 12.8134C26.1011 12.8134 27.1006 13.2774 27.8026 14.027C28.6712 13.8604 29.5041 13.5392 30.2418 13.0989C29.9562 13.9913 29.3494 14.741 28.5522 15.2169C29.3256 15.1336 30.0752 14.9194 30.7653 14.622C30.2419 15.3834 29.5874 16.0616 28.8378 16.609V16.609Z" fill="black"/>
</svg>
