<svg width="24" height="23" viewBox="0 0 24 23" fill="none" xmlns="http://www.w3.org/2000/svg">
<path d="M23.3816 2.65194C16.3858 0.164968 8.78173 -0.0404436 1.66188 2.06522C1.37887 2.13294 1.11241 2.257 0.878411 2.42998C0.64441 2.60297 0.447665 2.82133 0.299923 3.07203C0.152181 3.32273 0.0564718 3.60064 0.0185098 3.88915C-0.0194522 4.17766 0.00111142 4.47086 0.0789728 4.75125C0.468656 6.31511 1.03707 8.1119 1.71974 9.74095C1.73146 9.77904 1.74978 9.76073 1.74978 9.72264C1.65089 8.95866 2.23835 7.99397 3.39055 7.64311C8.92776 5.88087 14.8868 5.95977 20.3755 7.86798C20.5779 7.93723 20.7922 7.96524 21.0056 7.95035C21.2191 7.93547 21.4274 7.878 21.6182 7.78133C21.8091 7.68467 21.9787 7.55076 22.117 7.3875C22.2553 7.22425 22.3595 7.03495 22.4235 6.83078C23.1062 4.63332 23.3816 3.14124 23.4497 2.76767C23.4614 2.69809 23.3999 2.67172 23.3816 2.65267V2.65194ZM6.50289 7.48636C5.66419 7.66142 4.50466 7.93684 3.63447 8.22544C1.89481 8.82534 1.97538 10.9422 2.90198 11.6176C2.9701 11.225 3.39055 10.691 3.85934 10.5108C5.59607 9.82812 7.46098 9.42012 9.3464 9.25165C8.38831 8.8627 7.45366 8.30528 6.51534 7.48563L6.50289 7.48636ZM20.352 11.7245C17.8527 10.5502 15.1433 9.88884 12.384 9.77951C9.62473 9.67018 6.87152 10.1151 4.28711 11.088C3.45867 11.4008 2.94007 12.4087 3.45867 13.3653C4.36464 15.0032 5.39279 16.5706 6.53438 18.054C6.37031 17.4855 6.66037 16.433 7.77375 16.0887C10.8531 15.1423 14.0841 15.5437 16.2318 16.4132C16.8383 16.6571 17.6968 16.5091 18.178 15.7884C18.9987 14.5241 19.7452 13.2132 20.4136 11.8622C20.4436 11.8014 20.4136 11.756 20.352 11.7245ZM15.3623 19.3131C14.4615 18.8582 13.6377 18.2648 12.9209 17.5544C12.5891 17.2226 12.1006 16.7457 11.5856 16.1773C10.41 16.1773 9.26876 16.2953 8.04844 16.6849C6.91528 17.0395 6.80907 18.3484 7.30496 19.0311C8.14366 20.0764 8.73185 20.6404 9.67016 21.6102C10.1674 22.0979 10.8352 22.3727 11.5317 22.3761C12.2283 22.3795 12.8987 22.1113 13.4007 21.6285C14.1332 20.896 14.5837 20.4074 15.4114 19.4691C15.4605 19.4193 15.4414 19.3321 15.3616 19.3131H15.3623Z" fill="black"/>
</svg>
