<svg width="102" height="22" viewBox="0 0 102 22" fill="none" xmlns="http://www.w3.org/2000/svg">
<path d="M29.8489 18.9924H32.8263L37.9376 6.73529H34.8113L32.5782 12.3676C32.0571 13.7075 31.6105 14.9977 31.4368 15.7669C31.288 15.0969 30.8662 13.8315 30.3451 12.3676L28.2113 6.73529H24.9857L29.8489 18.9924ZM44.5554 19.315C47.7562 19.315 49.9893 17.7022 50.5103 15.0225H47.7066C47.3592 16.1887 46.2675 16.8338 44.605 16.8338C42.5953 16.8338 41.4539 15.7421 41.2306 13.5834L50.4607 13.5586V12.6406C50.4607 8.8195 48.1284 6.36311 44.4562 6.36311C40.8584 6.36311 38.3524 9.018 38.3524 12.8639C38.3524 16.6601 40.9081 19.315 44.5554 19.315ZM44.481 8.84431C46.2923 8.84431 47.4584 9.96085 47.4584 11.6481H41.305C41.6028 9.81198 42.6945 8.84431 44.481 8.84431ZM55.9104 18.9924V12.3924C55.9104 10.4075 57.0518 9.11724 58.9127 9.11724C60.4758 9.11724 61.4931 10.1097 61.4931 12.1691V18.9924H64.5202V11.4496C64.5202 8.27363 62.9322 6.36311 59.8555 6.36311C58.1931 6.36311 56.7044 7.08266 55.9352 8.32326L55.6871 6.73529H52.8833V18.9924H55.9104ZM72.5312 19.315C74.3921 19.315 75.9801 18.4962 76.7244 17.0819L76.9229 18.9924H79.7019V0.532282H76.6996V8.29845C75.9304 7.08266 74.4169 6.36311 72.7049 6.36311C69.0079 6.36311 66.7748 9.09243 66.7748 12.9135C66.7748 16.7097 68.9831 19.315 72.5312 19.315ZM73.2011 16.536C71.0921 16.536 69.8019 14.9977 69.8019 12.8142C69.8019 10.6308 71.0921 9.06762 73.2011 9.06762C75.3101 9.06762 76.6748 10.606 76.6748 12.8142C76.6748 15.0225 75.3101 16.536 73.2011 16.536ZM84.37 4.2789C85.3625 4.2789 86.1813 3.4601 86.1813 2.44281C86.1813 1.42552 85.3625 0.63153 84.37 0.63153C83.3279 0.63153 82.5091 1.42552 82.5091 2.44281C82.5091 3.4601 83.3279 4.2789 84.37 4.2789ZM82.8565 18.9924H85.8835V6.73529H82.8565V18.9924ZM92.6584 19.315C94.5689 19.315 96.2313 18.4466 96.7524 17.1812L96.9757 18.9924H99.6306V11.5488C99.6306 8.14957 97.596 6.36311 94.296 6.36311C90.9712 6.36311 88.7877 8.09995 88.7877 10.7548H91.3682C91.3682 9.46461 92.3606 8.72025 94.1471 8.72025C95.6855 8.72025 96.6779 9.39018 96.6779 11.0526V11.3255L93.0058 11.5984C90.1027 11.8218 88.4652 13.236 88.4652 15.4939C88.4652 17.8015 90.0531 19.315 92.6584 19.315ZM93.6509 17.0323C92.2862 17.0323 91.5418 16.4864 91.5418 15.3699C91.5418 14.3774 92.2614 13.7571 94.1471 13.5834L96.7027 13.3849V14.03C96.7027 15.9157 95.5118 17.0323 93.6509 17.0323Z" fill="white"/>
<g clip-path="url(#clip0_2488_1965)">
<path d="M9.87514 6.76184C9.67001 5.00388 9.45341 3.14773 9.45341 0.992432H11.3887C11.3887 3.12353 11.1731 4.97731 10.9683 6.73725C10.8014 8.17149 10.6417 9.54343 10.6121 10.9524C11.5838 9.93875 12.4339 8.86397 13.3244 7.73813C14.4223 6.35005 15.5817 4.88441 17.1056 3.36043L18.4741 4.72892C16.9672 6.23584 15.5038 7.39414 14.1145 8.49382L14.1132 8.49481C12.9816 9.39065 11.899 10.2476 10.8822 11.2225C12.2859 11.1928 13.6469 11.034 15.0726 10.8676C16.8306 10.6624 18.6868 10.4458 20.8421 10.4458V12.3811C18.7111 12.3811 16.8573 12.1655 15.0974 11.9607L15.0961 11.9606C13.6622 11.7937 12.2907 11.6342 10.8822 11.6045C11.8951 12.5755 12.9693 13.4252 14.0944 14.3151L14.0962 14.3166C15.4843 15.4146 16.95 16.5739 18.4741 18.0981L17.1056 19.4666C15.5987 17.9597 14.4405 16.4964 13.3409 15.1072L13.3383 15.1036L13.3361 15.1007C12.4414 13.9709 11.5856 12.89 10.6121 11.8746C10.6417 13.2835 10.8014 14.6555 10.9683 16.0897C11.1731 17.8497 11.3887 19.7034 11.3887 21.8345H9.45341C9.45341 19.6793 9.67001 17.8231 9.87514 16.0651L9.87556 16.0623C10.0417 14.6376 10.2004 13.2774 10.23 11.8746C9.25655 12.89 8.40067 13.9709 7.50597 15.1007L7.50378 15.1036L7.50118 15.1072C6.40165 16.4964 5.2434 17.9597 3.73649 19.4666L2.368 18.0981C3.89205 16.5739 5.35778 15.4146 6.74591 14.3166L6.74768 14.3151C7.87279 13.4252 8.94699 12.5755 9.95992 11.6045C8.55099 11.6343 7.17901 11.7939 5.74466 11.9607C3.9848 12.1655 2.13102 12.3811 0 12.3811V10.4458C2.1553 10.4458 4.01155 10.6624 5.76951 10.8676C7.19516 11.034 8.5562 11.1928 9.95992 11.2225C8.94267 10.2472 7.85971 9.39003 6.72762 8.49382C5.33834 7.39414 3.87489 6.23584 2.368 4.72892L3.73649 3.36043C5.26039 4.88441 6.41984 6.35005 7.51775 7.73813C8.40823 8.86392 9.25827 9.9387 10.23 10.9522C10.2004 9.54952 10.0417 8.18937 9.87556 6.7647L9.87514 6.76184Z" fill="#F2FF5A"/>
</g>
<defs>
<clipPath id="clip0_2488_1965">
<rect width="20.8421" height="20.8421" fill="white" transform="translate(0 0.992432)"/>
</clipPath>
</defs>
</svg>
