<svg width="46" height="30" viewBox="0 0 46 30" fill="none" xmlns="http://www.w3.org/2000/svg">
<rect width="46" height="30" rx="3" fill="white"/>
<path d="M42.9333 30H3.06667C2.25334 30 1.47332 29.6839 0.898206 29.1213C0.323094 28.5587 0 27.7957 0 27L0 3C0 2.20435 0.323094 1.44129 0.898206 0.87868C1.47332 0.316071 2.25334 0 3.06667 0L42.9333 0C43.7467 0 44.5267 0.316071 45.1018 0.87868C45.6769 1.44129 46 2.20435 46 3V27C46 27.7957 45.6769 28.5587 45.1018 29.1213C44.5267 29.6839 43.7467 30 42.9333 30ZM22.7956 18.4525L22.3368 21.265C23.5092 21.7477 24.7751 21.9742 26.0462 21.9287H26.0322C27.5217 22.0138 28.9968 21.6027 30.2169 20.7625L30.1952 20.7763C30.6933 20.4181 31.0984 19.9503 31.3776 19.4107C31.6569 18.8711 31.8024 18.2748 31.8026 17.67V17.6513V17.6525C31.8026 16.2775 30.8622 15.135 29.0081 14.2525C28.5022 14.0137 28.0183 13.7326 27.5617 13.4125L27.5911 13.4325C27.4635 13.3517 27.3573 13.2425 27.2812 13.1139C27.205 12.9853 27.161 12.8409 27.1528 12.6925V12.69C27.1623 12.5352 27.2117 12.3853 27.2964 12.2541C27.3811 12.123 27.4983 12.0149 27.6371 11.94L27.6422 11.9375C28.0711 11.6954 28.5639 11.5836 29.0579 11.6163H29.0503H29.1525L29.2509 11.615C30.0738 11.615 30.8545 11.7888 31.5586 12.1L31.5228 12.0862L31.8218 12.2425L32.2805 9.52875C31.3528 9.17684 30.366 8.99792 29.371 9.00125H29.3084H29.3122C27.8725 8.93958 26.4529 9.34956 25.2783 10.1663L25.2987 10.1525C24.8105 10.4896 24.4121 10.9364 24.1371 11.4554C23.862 11.9744 23.7184 12.5504 23.7181 13.135V13.1412C23.7053 14.4637 24.679 15.6062 26.6136 16.5413C27.1247 16.76 27.5655 17.0275 27.9603 17.3487L27.9514 17.3412C28.0654 17.435 28.158 17.5511 28.2234 17.682C28.2887 17.8129 28.3253 17.9557 28.3309 18.1012V18.1062C28.3309 18.505 28.0881 18.8475 27.738 19.0013L27.7316 19.0037C27.3483 19.2013 26.8934 19.3162 26.4104 19.3162H26.3516H26.3542H26.2583C25.1633 19.3162 24.1257 19.0788 23.1955 18.6538L23.2402 18.6725L22.8019 18.4575L22.7956 18.4525ZM35.7331 19.8787H39.9689C40.037 20.1646 40.1704 20.7896 40.3688 21.7537H43.4444L40.7688 9.215H38.2132C37.8479 9.18333 37.4818 9.26778 37.1695 9.45581C36.8571 9.64385 36.615 9.92543 36.4793 10.2587L36.4754 10.27L31.5688 21.7537H35.0443L35.742 19.88L35.7331 19.8787ZM19.0274 9.215L16.9497 21.7537H20.2643L22.3407 9.215H19.0274ZM6.28922 11.7737L8.98533 21.7337H12.4788L17.6857 9.215H14.1769L10.9391 17.77L10.5992 16.0312L9.44406 10.27C9.38213 9.9377 9.19068 9.64193 8.91008 9.4451C8.62949 9.24827 8.2817 9.16576 7.94011 9.215L7.94778 9.21375H2.59772L2.55811 9.4675C6.67767 10.4913 9.384 12.7 10.603 16.03C10.2284 15.0785 9.65079 14.216 8.90867 13.5L8.90739 13.4987C8.17831 12.7664 7.3062 12.1849 6.34289 11.7887L6.29178 11.77L6.28922 11.7737ZM39.4309 17.3H36.6709C36.8575 16.8183 37.2971 15.6517 37.9896 13.8L38.0484 13.6238L38.2528 13.1163C38.3372 12.9087 38.3934 12.7387 38.4317 12.6087L38.6719 13.6825L39.4297 17.295L39.4309 17.3Z" fill="#564AF7"/>
</svg>
