<svg width="200" height="60" viewBox="0 0 200 60" fill="none" xmlns="http://www.w3.org/2000/svg">
<rect width="200" height="60" fill="white"/>
<path d="M73.425 44.502L71.6976 40.0633H64.6533L62.9708 44.502H60.6152L66.9416 28.6079H69.4766L75.803 44.502H73.425ZM68.153 30.8945L65.4385 38.0233H70.9124L68.153 30.8945ZM79.8048 48.7613H77.7184V33.7191H79.7599V35.4004C80.074 34.8325 80.5451 34.3692 81.1733 34.0105C81.8014 33.6518 82.5343 33.4725 83.3718 33.4725C84.9272 33.4725 86.1387 34.0031 87.0061 35.0642C87.8885 36.1253 88.3297 37.4703 88.3297 39.0993C88.3297 40.7433 87.8735 42.1033 86.9612 43.1793C86.0639 44.2554 84.845 44.7934 83.3045 44.7934C82.5118 44.7934 81.8089 44.629 81.1957 44.3002C80.5825 43.9714 80.1189 43.553 79.8048 43.0448V48.7613ZM86.176 39.0993C86.176 38.0083 85.8844 37.1116 85.3011 36.4092C84.7328 35.6918 83.9626 35.3332 82.9904 35.3332C82.0332 35.3332 81.2555 35.6918 80.6573 36.4092C80.074 37.1116 79.7824 38.0083 79.7824 39.0993C79.7824 40.2202 80.074 41.1393 80.6573 41.8567C81.2555 42.5591 82.0332 42.9103 82.9904 42.9103C83.9476 42.9103 84.7178 42.5591 85.3011 41.8567C85.8844 41.1393 86.176 40.2202 86.176 39.0993ZM93.1031 48.7613H91.0168V33.7191H93.0582V35.4004C93.3723 34.8325 93.8434 34.3692 94.4716 34.0105C95.0997 33.6518 95.8326 33.4725 96.6701 33.4725C98.2255 33.4725 99.437 34.0031 100.304 35.0642C101.187 36.1253 101.628 37.4703 101.628 39.0993C101.628 40.7433 101.172 42.1033 100.26 43.1793C99.3622 44.2554 98.1433 44.7934 96.6028 44.7934C95.8101 44.7934 95.1072 44.629 94.494 44.3002C93.8808 43.9714 93.4172 43.553 93.1031 43.0448V48.7613ZM99.4743 39.0993C99.4743 38.0083 99.1827 37.1116 98.5994 36.4092C98.0311 35.6918 97.2609 35.3332 96.2887 35.3332C95.3316 35.3332 94.5538 35.6918 93.9556 36.4092C93.3723 37.1116 93.0807 38.0083 93.0807 39.0993C93.0807 40.2202 93.3723 41.1393 93.9556 41.8567C94.5538 42.5591 95.3316 42.9103 96.2887 42.9103C97.2459 42.9103 98.0161 42.5591 98.5994 41.8567C99.1827 41.1393 99.4743 40.2202 99.4743 39.0993ZM120.288 32.2171L118.314 32.9121C118.21 32.2246 117.873 31.6044 117.305 31.0514C116.736 30.4835 115.951 30.1995 114.949 30.1995C114.067 30.1995 113.334 30.4536 112.751 30.9617C112.167 31.4699 111.875 32.0976 111.875 32.8448C111.875 33.4277 112.047 33.9209 112.391 34.3244C112.751 34.7279 113.259 35.0044 113.917 35.1538L116.295 35.6694C117.611 35.9534 118.628 36.4914 119.346 37.2835C120.064 38.0606 120.423 39.0097 120.423 40.1305C120.423 41.4158 119.915 42.5218 118.898 43.4484C117.881 44.375 116.557 44.8383 114.927 44.8383C113.147 44.8383 111.748 44.375 110.731 43.4484C109.729 42.5068 109.146 41.3934 108.981 40.1081L111.09 39.4356C111.18 40.3921 111.554 41.1991 112.212 41.8567C112.87 42.5143 113.768 42.8431 114.904 42.8431C115.951 42.8431 116.759 42.604 117.327 42.1257C117.896 41.6475 118.18 41.0422 118.18 40.3099C118.18 39.7121 117.978 39.1965 117.574 38.7631C117.17 38.3147 116.579 38.0083 115.802 37.8439L113.536 37.3508C112.354 37.0967 111.412 36.596 110.709 35.8488C110.006 35.1015 109.654 34.1525 109.654 33.0017C109.654 31.7463 110.163 30.6479 111.18 29.7063C112.212 28.7498 113.454 28.2716 114.904 28.2716C116.535 28.2716 117.783 28.6677 118.651 29.4597C119.518 30.2518 120.064 31.171 120.288 32.2171ZM125.83 30.3116V33.7191H128.163V35.6246H125.83V41.229C125.83 41.7371 125.942 42.1108 126.166 42.3499C126.405 42.589 126.794 42.7086 127.333 42.7086C127.647 42.7086 127.923 42.6787 128.163 42.6189V44.4123C127.804 44.5468 127.325 44.6141 126.727 44.6141C125.8 44.6141 125.067 44.3451 124.528 43.807C123.99 43.269 123.721 42.5143 123.721 41.5429V35.6246H121.657V33.7191H122.24C122.794 33.7191 123.205 33.5696 123.474 33.2707C123.758 32.9569 123.9 32.5534 123.9 32.0602V30.3116H125.83ZM133.089 41.9464C133.747 42.6189 134.547 42.9552 135.489 42.9552C136.431 42.9552 137.224 42.6189 137.867 41.9464C138.525 41.2589 138.854 40.3099 138.854 39.0993C138.854 37.9037 138.525 36.9697 137.867 36.2971C137.224 35.6097 136.431 35.2659 135.489 35.2659C134.547 35.2659 133.747 35.6097 133.089 36.2971C132.446 36.9697 132.124 37.9037 132.124 39.0993C132.124 40.3099 132.446 41.2589 133.089 41.9464ZM131.518 35.0193C132.565 33.9283 133.889 33.3828 135.489 33.3828C137.089 33.3828 138.405 33.9283 139.437 35.0193C140.484 36.0954 141.008 37.4554 141.008 39.0993C141.008 40.7582 140.492 42.1332 139.46 43.2242C138.428 44.3002 137.104 44.8383 135.489 44.8383C133.874 44.8383 132.55 44.3002 131.518 43.2242C130.486 42.1332 129.97 40.7582 129.97 39.0993C129.97 37.4554 130.486 36.0954 131.518 35.0193ZM149.696 33.607V35.8488C149.382 35.8039 149.075 35.7815 148.776 35.7815C146.802 35.7815 145.815 36.8875 145.815 39.0993V44.502H143.706V33.7191H145.77V35.6022C146.428 34.2272 147.505 33.5398 149.001 33.5398C149.24 33.5398 149.472 33.5622 149.696 33.607ZM153.202 38.0009H159.102C159.072 37.1938 158.803 36.5362 158.295 36.0281C157.786 35.505 157.068 35.2435 156.141 35.2435C155.304 35.2435 154.616 35.52 154.077 36.073C153.539 36.611 153.247 37.2536 153.202 38.0009ZM159.416 40.8031L161.234 41.4308C160.92 42.4321 160.336 43.2541 159.484 43.8967C158.631 44.5244 157.599 44.8383 156.388 44.8383C154.877 44.8383 153.591 44.3226 152.529 43.2914C151.482 42.2453 150.959 40.8404 150.959 39.0769C150.959 37.433 151.467 36.073 152.484 34.9969C153.501 33.9209 154.713 33.3828 156.119 33.3828C157.749 33.3828 159.02 33.8984 159.932 34.9297C160.845 35.9459 161.301 37.3134 161.301 39.0321C161.301 39.3011 161.286 39.5253 161.256 39.7046H153.135C153.15 40.6611 153.464 41.4457 154.077 42.0585C154.705 42.6712 155.476 42.9776 156.388 42.9776C157.928 42.9776 158.938 42.2527 159.416 40.8031Z" fill="black"/>
<path opacity="0.6" d="M62.2634 18.856V14.9873H63.212C64.2034 14.9873 65.0238 15.6108 65.0238 16.9259C65.0238 18.2411 64.1948 18.856 63.2035 18.856H62.2634ZM63.2462 19.9491C64.9725 19.9491 66.2459 18.8389 66.2459 16.9259C66.2459 15.013 64.9811 13.8942 63.2547 13.8942H61.084V19.9491H63.2462ZM69.1998 16.9174C69.1998 15.551 70.157 14.9019 71.0886 14.9019C72.0287 14.9019 72.9858 15.551 72.9858 16.9174C72.9858 18.2838 72.0287 18.9328 71.0886 18.9328C70.157 18.9328 69.1998 18.2838 69.1998 16.9174ZM67.9777 16.9259C67.9777 18.8731 69.4477 20.0772 71.0886 20.0772C72.738 20.0772 74.208 18.8731 74.208 16.9259C74.208 14.9703 72.738 13.7661 71.0886 13.7661C69.4477 13.7661 67.9777 14.9703 67.9777 16.9259ZM81.7816 18.0788L80.4313 13.8942H79.2092L77.8675 18.0618L76.7564 13.8942H75.5087L77.1923 19.9491H78.423L79.8075 15.6364L81.192 19.9491H82.4055L84.0806 13.8942H82.8756L81.7816 18.0788ZM91.1171 19.9491V13.8942H89.9377V17.8995L87.4165 13.8942H85.9466V19.9491H87.1259V15.6535L89.8778 19.9491H91.1171ZM97.4465 19.9491V18.8218H94.7459V13.8942H93.5665V19.9491H97.4465ZM100.08 16.9174C100.08 15.551 101.037 14.9019 101.969 14.9019C102.909 14.9019 103.866 15.551 103.866 16.9174C103.866 18.2838 102.909 18.9328 101.969 18.9328C101.037 18.9328 100.08 18.2838 100.08 16.9174ZM98.8577 16.9259C98.8577 18.8731 100.328 20.0772 101.969 20.0772C103.618 20.0772 105.088 18.8731 105.088 16.9259C105.088 14.9703 103.618 13.7661 101.969 13.7661C100.328 13.7661 98.8577 14.9703 98.8577 16.9259ZM110.997 19.9491H112.279L109.972 13.8942H108.604L106.28 19.9491H107.528L108.032 18.5656H110.493L110.997 19.9491ZM109.262 15.2008L110.1 17.4896H108.425L109.262 15.2008ZM115.301 18.856V14.9873H116.25C117.241 14.9873 118.062 15.6108 118.062 16.9259C118.062 18.2411 117.233 18.856 116.242 18.856H115.301ZM116.284 19.9491C118.011 19.9491 119.284 18.8389 119.284 16.9259C119.284 15.013 118.019 13.8942 116.293 13.8942H114.122V19.9491H116.284ZM125.418 16.9174C125.418 15.551 126.375 14.9019 127.307 14.9019C128.247 14.9019 129.204 15.551 129.204 16.9174C129.204 18.2838 128.247 18.9328 127.307 18.9328C126.375 18.9328 125.418 18.2838 125.418 16.9174ZM124.196 16.9259C124.196 18.8731 125.666 20.0772 127.307 20.0772C128.956 20.0772 130.426 18.8731 130.426 16.9259C130.426 14.9703 128.956 13.7661 127.307 13.7661C125.666 13.7661 124.196 14.9703 124.196 16.9259ZM137.687 19.9491V13.8942H136.508V17.8995L133.987 13.8942H132.517V19.9491H133.696V15.6535L136.448 19.9491H137.687ZM147.778 15.013V13.8942H142.762V15.013H144.676V19.9491H145.864V15.013H147.778ZM154.685 19.9491V13.8942H153.497V16.3281H150.856V13.8942H149.677V19.9491H150.856V17.4383H153.497V19.9491H154.685ZM160.932 19.9491V18.8389H158.317V17.4383H160.684V16.3879H158.317V15.0044H160.932V13.8942H157.138V19.9491H160.932Z" fill="#212124"/>
<path d="M46.3685 38.1151C45.6748 39.6503 45.3436 40.3355 44.4503 41.6919C43.2058 43.5861 41.4497 45.9453 39.2737 45.9652C37.3409 45.9833 36.8442 44.7082 34.2201 44.7236C31.5962 44.739 31.0494 45.988 29.1164 45.9699C26.9404 45.9506 25.278 43.8202 24.032 41.9247C20.5494 36.6272 20.1856 30.411 22.3334 27.1064C23.8598 24.7565 26.2688 23.3835 28.5329 23.3835C30.8384 23.3835 32.2879 24.6465 34.1948 24.6465C36.0442 24.6465 37.1706 23.3815 39.8366 23.3815C41.8517 23.3815 43.9869 24.4777 45.5086 26.3718C40.523 29.1013 41.3336 36.2129 46.3685 38.1151Z" fill="black"/>
<path d="M38.0953 20.0664C39.0641 18.824 39.7985 17.0714 39.5314 15.2786C37.9491 15.3868 36.0996 16.3929 35.0193 17.7039C34.0385 18.8935 33.2286 20.6582 33.5437 22.3735C35.2697 22.4276 37.0571 21.3967 38.0953 20.0664Z" fill="black"/>
</svg>
