<svg width="215" height="60" viewBox="0 0 215 60" fill="none" xmlns="http://www.w3.org/2000/svg">
<rect width="215" height="60" fill="white"/>
<path d="M78.783 44.502H77.0102L76.8082 42.2602C76.4192 42.9626 75.7834 43.5679 74.9007 44.0761C74.018 44.5842 72.9557 44.8383 71.714 44.8383C70.3525 44.8383 69.0958 44.5319 67.9438 43.9191C66.7918 43.2914 65.8418 42.3349 65.0938 41.0497C64.3607 39.7644 63.9941 38.2624 63.9941 36.5437C63.9941 34.825 64.3831 33.3231 65.1611 32.0378C65.9391 30.7525 66.9115 29.8035 68.0785 29.1907C69.2604 28.578 70.5246 28.2716 71.8711 28.2716C73.5766 28.2716 75.0577 28.7125 76.3145 29.5942C77.5861 30.4611 78.4539 31.6193 78.9177 33.069L76.9204 33.9209C76.5613 32.7701 75.933 31.8808 75.0353 31.2532C74.1526 30.6105 73.0979 30.2892 71.8711 30.2892C70.3301 30.2892 69.0061 30.8347 67.8989 31.9257C66.7918 33.0167 66.2383 34.556 66.2383 36.5437C66.2383 38.5464 66.7769 40.1007 67.8541 41.2066C68.9462 42.2976 70.2553 42.8431 71.7813 42.8431C72.6191 42.8431 73.3597 42.7086 74.003 42.4396C74.6613 42.1706 75.17 41.8193 75.529 41.3859C75.903 40.9376 76.1798 40.4892 76.3593 40.0409C76.5538 39.5925 76.6661 39.1442 76.696 38.6958H71.1754V36.7231H78.783V44.502ZM84.161 41.9464C84.8193 42.6189 85.6197 42.9552 86.5623 42.9552C87.5048 42.9552 88.2977 42.6189 88.9411 41.9464C89.5993 41.2589 89.9285 40.3099 89.9285 39.0993C89.9285 37.9037 89.5993 36.9697 88.9411 36.2971C88.2977 35.6097 87.5048 35.2659 86.5623 35.2659C85.6197 35.2659 84.8193 35.6097 84.161 36.2971C83.5177 36.9697 83.1961 37.9037 83.1961 39.0993C83.1961 40.3099 83.5177 41.2589 84.161 41.9464ZM82.5902 35.0193C83.6374 33.9283 84.9615 33.3828 86.5623 33.3828C88.1631 33.3828 89.4797 33.9283 90.512 35.0193C91.5592 36.0954 92.0829 37.4554 92.0829 39.0993C92.0829 40.7582 91.5667 42.1332 90.5344 43.2242C89.5021 44.3002 88.1781 44.8383 86.5623 44.8383C84.9465 44.8383 83.6225 44.3002 82.5902 43.2242C81.5578 42.1332 81.0417 40.7582 81.0417 39.0993C81.0417 37.4554 81.5578 36.0954 82.5902 35.0193ZM97.0035 41.9464C97.6618 42.6189 98.4622 42.9552 99.4047 42.9552C100.347 42.9552 101.14 42.6189 101.784 41.9464C102.442 41.2589 102.771 40.3099 102.771 39.0993C102.771 37.9037 102.442 36.9697 101.784 36.2971C101.14 35.6097 100.347 35.2659 99.4047 35.2659C98.4622 35.2659 97.6618 35.6097 97.0035 36.2971C96.3602 36.9697 96.0385 37.9037 96.0385 39.0993C96.0385 40.3099 96.3602 41.2589 97.0035 41.9464ZM95.4326 35.0193C96.4799 33.9283 97.8039 33.3828 99.4047 33.3828C101.006 33.3828 102.322 33.9283 103.354 35.0193C104.402 36.0954 104.925 37.4554 104.925 39.0993C104.925 40.7582 104.409 42.1332 103.377 43.2242C102.345 44.3002 101.021 44.8383 99.4047 44.8383C97.789 44.8383 96.4649 44.3002 95.4326 43.2242C94.4003 42.1332 93.8842 40.7582 93.8842 39.0993C93.8842 37.4554 94.4003 36.0954 95.4326 35.0193ZM106.839 45.0848L108.881 44.6141C108.956 45.3763 109.263 46.004 109.801 46.4972C110.34 47.0053 111.013 47.2594 111.821 47.2594C114.02 47.2594 115.12 46.0936 115.12 43.7622V42.2154C114.85 42.7385 114.424 43.1644 113.841 43.4932C113.272 43.822 112.599 43.9864 111.821 43.9864C110.385 43.9864 109.195 43.5007 108.253 42.5292C107.325 41.5429 106.861 40.2875 106.861 38.7631C106.861 37.2835 107.325 36.0431 108.253 35.0417C109.18 34.0255 110.37 33.5173 111.821 33.5173C113.467 33.5173 114.574 34.0853 115.142 35.2211V33.7191H117.229V43.695C117.229 44.4123 117.132 45.0774 116.938 45.6901C116.758 46.3178 116.466 46.8932 116.062 47.4163C115.658 47.9394 115.09 48.3503 114.357 48.6493C113.639 48.9482 112.793 49.0976 111.821 49.0976C110.489 49.0976 109.36 48.7165 108.432 47.9543C107.505 47.2071 106.973 46.2506 106.839 45.0848ZM112.135 42.2154C113.048 42.2154 113.788 41.9015 114.357 41.2738C114.925 40.6312 115.209 39.7943 115.209 38.7631C115.209 37.7319 114.925 36.9024 114.357 36.2747C113.788 35.6321 113.048 35.3107 112.135 35.3107C111.207 35.3107 110.452 35.6246 109.868 36.2523C109.3 36.88 109.016 37.7169 109.016 38.7631C109.016 39.8242 109.292 40.6686 109.846 41.2963C110.414 41.909 111.177 42.2154 112.135 42.2154ZM122.707 44.502H120.598V28.2716H122.707V44.502ZM127.665 38.0009H133.567C133.537 37.1938 133.268 36.5362 132.759 36.0281C132.25 35.505 131.532 35.2435 130.604 35.2435C129.767 35.2435 129.078 35.52 128.54 36.073C128.001 36.611 127.71 37.2536 127.665 38.0009ZM133.881 40.8031L135.699 41.4308C135.384 42.4321 134.801 43.2541 133.948 43.8967C133.095 44.5244 132.063 44.8383 130.851 44.8383C129.34 44.8383 128.054 44.3226 126.991 43.2914C125.944 42.2453 125.421 40.8404 125.421 39.0769C125.421 37.433 125.929 36.073 126.947 34.9969C127.964 33.9209 129.176 33.3828 130.582 33.3828C132.213 33.3828 133.484 33.8984 134.397 34.9297C135.31 35.9459 135.766 37.3134 135.766 39.0321C135.766 39.3011 135.751 39.5253 135.721 39.7046H127.597C127.612 40.6611 127.926 41.4457 128.54 42.0585C129.168 42.6712 129.939 42.9776 130.851 42.9776C132.392 42.9776 133.402 42.2527 133.881 40.8031ZM146.493 36.0281H149.68C150.622 36.0281 151.37 35.789 151.924 35.3107C152.477 34.8176 152.754 34.16 152.754 33.338C152.754 32.5011 152.477 31.836 151.924 31.3428C151.37 30.8347 150.622 30.5806 149.68 30.5806H146.493V36.0281ZM150.084 38.0009H146.493V44.502H144.294V28.6079H150.084C151.535 28.6079 152.717 29.0562 153.629 29.9529C154.542 30.8496 154.998 31.9705 154.998 33.3156C154.998 34.6756 154.542 35.7965 153.629 36.6782C152.717 37.56 151.535 38.0009 150.084 38.0009ZM159.35 44.502H157.24V28.2716H159.35V44.502ZM162.265 41.6101C162.265 40.6835 162.564 39.9437 163.163 39.3908C163.761 38.8229 164.554 38.4716 165.541 38.3371L168.459 37.9112C169.012 37.8365 169.289 37.5675 169.289 37.1042C169.289 36.5362 169.095 36.0729 168.706 35.7143C168.317 35.3556 167.733 35.1762 166.955 35.1762C166.237 35.1762 165.669 35.378 165.25 35.7815C164.831 36.1701 164.584 36.6932 164.509 37.3508L162.489 36.88C162.594 35.8488 163.065 35.0118 163.903 34.3692C164.741 33.7116 165.743 33.3828 166.91 33.3828C168.436 33.3828 169.566 33.7565 170.299 34.5037C171.032 35.236 171.399 36.1776 171.399 37.3283V42.731C171.399 43.3736 171.444 43.964 171.533 44.502H169.469C169.394 44.0536 169.356 43.5679 169.356 43.0448C169.057 43.5231 168.616 43.9415 168.032 44.3002C167.464 44.6589 166.746 44.8383 165.878 44.8383C164.816 44.8383 163.948 44.5244 163.275 43.8967C162.602 43.2541 162.265 42.4919 162.265 41.6101ZM166.17 43.0673C167.112 43.0673 167.868 42.8132 168.436 42.3051C169.005 41.7969 169.289 40.9899 169.289 39.884V39.3908L165.99 39.884C165.512 39.9587 165.13 40.1305 164.846 40.3996C164.562 40.6686 164.419 41.0347 164.419 41.498C164.419 41.9165 164.576 42.2826 164.891 42.5965C165.22 42.9103 165.646 43.0673 166.17 43.0673ZM177.16 49.0079H174.848L177.541 43.3139L172.896 33.7191H175.319L178.686 41.1618L181.917 33.7191H184.184L177.16 49.0079Z" fill="black"/>
<path opacity="0.6" d="M70.2343 19.9491V16.7978H67.2079V17.8226H69.1229C69.0545 18.2496 68.6185 19.0012 67.4986 19.0012C66.4812 19.0012 65.5836 18.2923 65.5836 16.9259C65.5836 15.4912 66.5753 14.8678 67.49 14.8678C68.4732 14.8678 68.9776 15.4912 69.1315 16.0292L70.26 15.6278C69.9607 14.697 69.0802 13.7661 67.49 13.7661C65.8486 13.7661 64.3867 14.9703 64.3867 16.9259C64.3867 18.8816 65.7802 20.0772 67.4131 20.0772C68.3279 20.0772 68.9263 19.6673 69.1999 19.2574L69.2768 19.9491H70.2343ZM76.8235 19.9491V18.8389H74.2075V17.4383H76.5756V16.3879H74.2075V15.0044H76.8235V13.8942H73.0277V19.9491H76.8235ZM84.1693 15.013V13.8942H79.151V15.013H81.066V19.9491H82.2543V15.013H84.1693ZM91.5148 19.9491V13.8942H90.318V19.9491H91.5148ZM98.9634 15.013V13.8942H93.945V15.013H95.86V19.9491H97.0484V15.013H98.9634ZM105.975 16.9174C105.975 15.551 106.933 14.9019 107.865 14.9019C108.805 14.9019 109.763 15.551 109.763 16.9174C109.763 18.2838 108.805 18.9328 107.865 18.9328C106.933 18.9328 105.975 18.2838 105.975 16.9174ZM104.753 16.9259C104.753 18.8731 106.223 20.0772 107.865 20.0772C109.515 20.0772 110.985 18.8731 110.985 16.9259C110.985 14.9703 109.515 13.7661 107.865 13.7661C106.223 13.7661 104.753 14.9703 104.753 16.9259ZM118.784 19.9491V13.8942H117.604V17.8995L115.081 13.8942H113.611V19.9491H114.791V15.6535L117.544 19.9491H118.784Z" fill="#212124"/>
<path d="M37.8048 30.153L42.0816 25.8761L46.5323 28.4467C47.1472 28.8222 47.4999 29.455 47.4999 30.153C47.4999 30.8531 47.1457 31.4848 46.5485 31.8497L42.0813 34.4295L37.8048 30.153Z" fill="black" stroke="white"/>
<path d="M23.7886 42.8089C23.604 42.5025 23.5 42.1476 23.5 41.7684V18.4966C23.5 18.1177 23.6038 17.7632 23.7881 17.4571L36.3926 30.1525L23.7886 42.8089Z" fill="black" stroke="white"/>
<path d="M41.1921 25.3512L37.0987 29.4446L24.5056 16.7604C24.5093 16.7581 24.513 16.7557 24.5167 16.7533C25.1527 16.4007 25.8985 16.4164 26.519 16.7992L26.5189 16.7993L26.5282 16.8047L35.1859 21.8931L35.1859 21.8931L35.1898 21.8953L41.1921 25.3512Z" fill="black" stroke="white"/>
<path d="M37.0982 30.8608L41.1918 34.9547L35.1894 38.4106L35.1894 38.4106L35.1868 38.4121L26.5131 43.4759C26.1793 43.6705 25.8341 43.7726 25.4877 43.7726C25.1731 43.7726 24.8445 43.6859 24.5134 43.5092C24.5111 43.5077 24.5087 43.5062 24.5063 43.5046L37.0982 30.8608Z" fill="black" stroke="white"/>
</svg>
